M48
; DRILL file {KiCad 5.1.4} date Thu Sep 12 17:56:31 2019
; FORMAT={-:-/ absolute / metric / decimal}
; #@! TF.CreationDate,2019-09-12T17:56:31+02:00
; #@! TF.GenerationSoftware,Kicad,Pcbnew,5.1.4
; #@! TF.FileFunction,Plated,1,2,PTH
FMAT,2
METRIC
T1C0.800
T2C2.700
%
G90
G05
T1
X31.0Y32.1
X3.1Y3.1
X0.0Y32.1
X0.0Y29.0
X3.1Y32.1
X3.1Y29.0
X31.0Y3.1
X31.0Y0.0
X34.1Y3.1
X34.1Y0.0
X0.0Y61.1
X0.0Y58.0
X3.1Y61.1
X3.1Y58.0
X31.0Y29.0
X34.1Y32.1
X34.1Y29.0
X0.0Y3.1
X0.0Y0.0
X3.1Y0.0
X31.0Y61.1
X31.0Y58.0
X34.1Y61.1
X34.1Y58.0
T2
X40.17Y69.075
X40.17Y40.075
X9.17Y40.075
X-12.42Y21.025
X40.17Y21.025
X18.58Y69.075
X9.17Y-7.975
X18.58Y40.075
X9.17Y11.075
X-12.42Y69.075
X-12.42Y50.025
X40.17Y-7.975
X9.17Y69.075
X9.17Y50.025
X40.17Y11.075
X-12.42Y11.075
X40.17Y50.025
X9.17Y21.025
X-12.42Y40.075
X18.58Y50.025
X-12.42Y-7.975
X18.58Y21.025
X18.58Y11.075
X18.58Y-7.975
T0
M30
