<?xml version="1.0" standalone="no"?>
 <!DOCTYPE svg PUBLIC "-//W3C//DTD SVG 1.1//EN" 
 "http://www.w3.org/Graphics/SVG/1.1/DTD/svg11.dtd"> 
<svg xmlns="http://www.w3.org/2000/svg" version="1.1" 
    width="29.7002cm" height="21.0007cm" viewBox="0 0 116930 82680 ">
<title>SVG Picture created as detectorHolder-Edge_Cuts.svg date 2019/09/12 17:56:13 </title>
  <desc>Picture generated by PCBNEW </desc>
<g style="fill:#000000; fill-opacity:1;stroke:#000000; stroke-opacity:1;
stroke-linecap:round; stroke-linejoin:round; "
 transform="translate(0 0) scale(1 1)">
</g>
<g style="fill:#000000; fill-opacity:0.0; 
stroke:#000000; stroke-width:-0.000393701; stroke-opacity:1; 
stroke-linecap:round; stroke-linejoin:round;">
</g>
<g style="fill:#000000; fill-opacity:0.0; 
stroke:#000000; stroke-width:19.685; stroke-opacity:1; 
stroke-linecap:round; stroke-linejoin:round;">
<path d="M51973 68446
L51973 58603
" />
<path d="M39768 68446
L39768 58603
" />
<path d="M51973 57028
L51973 47186
" />
<path d="M39768 57028
L39768 47186
" />
<path d="M51973 45611
L51973 35768
" />
<path d="M51973 58603
L62904 58603
" />
<path d="M39768 58603
L50700 58603
" />
<path d="M51973 47186
L62904 47186
" />
<path d="M39768 47186
L50700 47186
" />
<path d="M51973 35768
L62904 35768
" />
<path d="M62904 58603
L62904 68446
" />
<path d="M50700 58603
L50700 68446
" />
<path d="M62904 47186
L62904 57028
" />
<path d="M50700 47186
L50700 57028
" />
<path d="M62904 35768
L62904 45611
" />
<path d="M62904 68446
L51973 68446
" />
<path d="M50700 68446
L39768 68446
" />
<path d="M62904 57028
L51973 57028
" />
<path d="M50700 57028
L39768 57028
" />
<path d="M62904 45611
L51973 45611
" />
<path d="M39768 45611
L39768 35768
" />
<path d="M50700 45611
L39768 45611
" />
<path d="M50700 35768
L50700 45611
" />
<path d="M39768 35768
L50700 35768
" />
<g >
</g>
<g >
</g>
<g >
</g>
<g >
</g>
<g >
</g>
<g >
</g>
<g >
</g>
<g >
</g>
<g >
</g>
<g >
</g>
<g >
</g>
<g >
</g>
<g >
</g>
<g >
</g>
<g >
</g>
<g >
</g>
<g >
</g>
<g >
</g>
<g >
</g>
<g >
</g>
<g >
</g>
<g >
</g>
<g >
</g>
<g >
</g>
<g >
</g>
<g >
</g>
<g >
</g>
<g >
</g>
<g >
</g>
<g >
</g>
<g >
</g>
<g >
</g>
<g >
</g>
<g >
</g>
<g >
</g>
<g >
</g>
<g >
</g>
<g >
</g>
<g >
</g>
<g >
</g>
<g >
</g>
<g >
</g>
<g >
</g>
<g >
</g>
<g >
</g>
<g >
</g>
<g >
</g>
</g> 
</svg>
