<?xml version="1.0" standalone="no"?>
<!DOCTYPE svg PUBLIC "-//W3C//DTD SVG 1.1//EN"
"http://www.w3.org/Graphics/SVG/1.1/DTD/svg11.dtd">
<svg width="230.23" height="321.827" viewBox="0 0 4796.46 6704.72" version="1.1"
xmlns="http://www.w3.org/2000/svg"
xmlns:xlink="http://www.w3.org/1999/xlink">
<circle cx="1298.82" cy="5759.84" r="31.4961" style=""/>
<circle cx="1542.91" cy="5515.75" r="31.4961" style=""/>
<circle cx="1298.82" cy="5515.75" r="31.4961" style=""/>
<circle cx="1542.91" cy="5759.84" r="31.4961" style=""/>
<circle cx="3739.76" cy="5515.75" r="31.4961" style=""/>
<circle cx="3739.76" cy="5759.84" r="31.4961" style=""/>
<circle cx="3983.86" cy="5759.84" r="31.4961" style=""/>
<circle cx="3983.86" cy="5515.75" r="31.4961" style=""/>
<circle cx="3739.76" cy="3476.38" r="31.4961" style=""/>
<circle cx="3983.86" cy="3476.38" r="31.4961" style=""/>
<circle cx="3739.76" cy="3232.28" r="31.4961" style=""/>
<circle cx="3983.86" cy="3232.28" r="31.4961" style=""/>
<circle cx="3739.76" cy="1192.91" r="31.4961" style=""/>
<circle cx="3983.86" cy="1192.91" r="31.4961" style=""/>
<circle cx="3983.86" cy="948.819" r="31.4961" style=""/>
<circle cx="3739.76" cy="948.819" r="31.4961" style=""/>
<circle cx="1542.91" cy="948.819" r="31.4961" style=""/>
<circle cx="1298.82" cy="948.819" r="31.4961" style=""/>
<circle cx="1542.91" cy="1192.91" r="31.4961" style=""/>
<circle cx="1298.82" cy="1192.91" r="31.4961" style=""/>
<circle cx="1298.82" cy="3232.28" r="31.4961" style=""/>
<circle cx="1542.91" cy="3232.28" r="31.4961" style=""/>
<circle cx="1542.91" cy="3476.38" r="31.4961" style=""/>
<circle cx="1298.82" cy="3476.38" r="31.4961" style=""/>
<circle cx="320.866" cy="6387.8" r="106.299" style=""/>
<circle cx="320.866" cy="4887.8" r="106.299" style=""/>
<circle cx="320.866" cy="4104.33" r="106.299" style=""/>
<circle cx="320.866" cy="2604.33" r="106.299" style=""/>
<circle cx="320.866" cy="1820.87" r="106.299" style=""/>
<circle cx="320.866" cy="320.866" r="106.299" style=""/>
<circle cx="2020.87" cy="320.866" r="106.299" style=""/>
<circle cx="2761.81" cy="320.866" r="106.299" style=""/>
<circle cx="2761.81" cy="1820.87" r="106.299" style=""/>
<circle cx="2020.87" cy="1820.87" r="106.299" style=""/>
<circle cx="2761.81" cy="2604.33" r="106.299" style=""/>
<circle cx="2020.87" cy="2604.33" r="106.299" style=""/>
<circle cx="2761.81" cy="4104.33" r="106.299" style=""/>
<circle cx="2020.87" cy="4104.33" r="106.299" style=""/>
<circle cx="2020.87" cy="4887.8" r="106.299" style=""/>
<circle cx="2761.81" cy="4887.8" r="106.299" style=""/>
<circle cx="2020.87" cy="6387.8" r="106.299" style=""/>
<circle cx="2761.81" cy="6387.8" r="106.299" style=""/>
<circle cx="4461.81" cy="6387.8" r="106.299" style=""/>
<circle cx="4461.81" cy="4887.8" r="106.299" style=""/>
<circle cx="4461.81" cy="4104.33" r="106.299" style=""/>
<circle cx="4461.81" cy="2604.33" r="106.299" style=""/>
<circle cx="4461.81" cy="1820.87" r="106.299" style=""/>
<circle cx="4461.81" cy="320.866" r="106.299" style=""/>
</svg>
