<?xml version="1.0" standalone="no"?>
<!DOCTYPE svg PUBLIC "-//W3C//DTD SVG 1.1//EN"
"http://www.w3.org/Graphics/SVG/1.1/DTD/svg11.dtd">
<svg width="230.23" height="321.827" viewBox="0 0 4796.46 6704.72" version="1.1"
xmlns="http://www.w3.org/2000/svg"
xmlns:xlink="http://www.w3.org/1999/xlink">
<g fill-rule="evenodd"><path d="M 2270.87,4651.57 L 2270.87,6620.08 L 84.6457,6620.08 L 84.6457,4651.57 L 2270.87,4651.57 z " style="fill-opacity:1.000000;fill:rgb(103,198,105);stroke:rgb(0,0,0);stroke-width:2"/></g>
<g fill-rule="evenodd"><path d="M 2270.87,2368.11 L 2270.87,4336.61 L 84.6457,4336.61 L 84.6457,2368.11 L 2270.87,2368.11 z " style="fill-opacity:1.000000;fill:rgb(115,81,255);stroke:rgb(0,0,0);stroke-width:2"/></g>
<g fill-rule="evenodd"><path d="M 2270.87,84.6457 L 2270.87,2053.15 L 84.6457,2053.15 L 84.6457,84.6457 L 2270.87,84.6457 z " style="fill-opacity:1.000000;fill:rgb(74,236,41);stroke:rgb(0,0,0);stroke-width:2"/></g>
<g fill-rule="evenodd"><path d="M 4711.81,4651.57 L 4711.81,6620.08 L 2525.59,6620.08 L 2525.59,4651.57 L 4711.81,4651.57 z " style="fill-opacity:1.000000;fill:rgb(205,186,171);stroke:rgb(0,0,0);stroke-width:2"/></g>
<g fill-rule="evenodd"><path d="M 4711.81,2368.11 L 4711.81,4336.61 L 2525.59,4336.61 L 2525.59,2368.11 L 4711.81,2368.11 z " style="fill-opacity:1.000000;fill:rgb(242,251,227);stroke:rgb(0,0,0);stroke-width:2"/></g>
<g fill-rule="evenodd"><path d="M 4711.81,84.6457 L 4711.81,2053.15 L 2525.59,2053.15 L 2525.59,84.6457 L 4711.81,84.6457 z " style="fill-opacity:1.000000;fill:rgb(70,124,194);stroke:rgb(0,0,0);stroke-width:2"/></g>
</svg>
