<?xml version="1.0" standalone="no"?>
<!DOCTYPE svg PUBLIC "-//W3C//DTD SVG 1.1//EN"
"http://www.w3.org/Graphics/SVG/1.1/DTD/svg11.dtd">
<svg width="230.23" height="321.827" viewBox="0 0 4796.46 6704.72" version="1.1"
xmlns="http://www.w3.org/2000/svg"
xmlns:xlink="http://www.w3.org/1999/xlink">
<g fill-rule="evenodd"><path d="M 0.000892442,4494.1 L 84.6469,4494.1 L 2270.86,4494.1 L 2398.23,4494.1 L 2398.23,6704.72 L 0,6704.72 L 0.000892442,4494.1 z " style="fill-opacity:0.200000;fill:rgb(103,198,105);"/></g>
<g fill-rule="evenodd"><path d="M 2.53882e-05,2210.63 L 84.6469,2210.63 L 2270.86,2210.63 L 2398.23,2210.63 L 2398.23,2368.11 L 2398.23,4336.61 L 2398.23,4494.1 L 2.56729e-05,4494.1 L 2.53882e-05,2210.63 z " style="fill-opacity:0.200000;fill:rgb(115,81,255);"/></g>
<g fill-rule="evenodd"><path d="M 2398.23,9.09495e-13 L 2398.23,84.6465 L 2398.23,2053.15 L 2398.23,2210.63 L 0.000892157,2210.63 L 0,9.09495e-13 L 2398.23,9.09495e-13 z " style="fill-opacity:0.200000;fill:rgb(74,236,41);"/></g>
<g fill-rule="evenodd"><path d="M 2398.23,6704.72 L 2398.23,6620.08 L 2398.23,4651.58 L 2398.23,4494.1 L 4796.46,4494.1 L 4796.46,6704.72 L 2398.23,6704.72 z " style="fill-opacity:0.200000;fill:rgb(205,186,171);"/></g>
<g fill-rule="evenodd"><path d="M 4796.46,2210.63 L 4796.46,4494.1 L 4711.81,4494.1 L 2525.59,4494.1 L 2398.23,4494.1 L 2398.23,4336.61 L 2398.23,2368.11 L 2398.23,2210.63 L 4796.46,2210.63 z " style="fill-opacity:0.200000;fill:rgb(242,251,227);"/></g>
<g fill-rule="evenodd"><path d="M 2398.23,9.09495e-13 L 4796.46,9.09495e-13 L 4796.46,2210.63 L 4711.81,2210.63 L 2525.59,2210.63 L 2398.23,2210.63 L 2398.23,9.09495e-13 z " style="fill-opacity:0.200000;fill:rgb(70,124,194);"/></g>
<polyline points="43.3089,6620.08 43.3089,4651.58 44.1029,4643.51 46.4549,4635.76 50.2749,4628.61 55.4149,4622.34 61.6809,4617.2 68.8269,4613.38 76.5829,4611.03 84.6469,4610.24 2270.86,4610.24 2278.93,4611.03 2286.68,4613.38 2293.83,4617.2 2300.1,4622.34 2305.24,4628.61 2309.06,4635.76 2311.41,4643.51 2312.2,4651.58 2312.2,6620.08 2311.41,6628.14 2309.06,6635.9 2305.24,6643.04 2300.1,6649.31 2293.83,6654.45 2286.68,6658.27 2278.93,6660.62 2270.86,6661.42 84.6469,6661.42 76.5829,6660.62 68.8269,6658.27 61.6809,6654.45 55.4149,6649.31 50.2749,6643.04 46.4549,6635.9 44.1029,6628.14 43.3089,6620.08" style="stroke:rgb(103,198,105);stroke-width:82.677165;fill:none;stroke-opacity:0.5;stroke-linecap:round;stroke-linejoin:round;;fill:none"/>
<polyline points="43.3089,6620.08 43.3089,4651.58 44.1029,4643.51 46.4549,4635.76 50.2749,4628.61 55.4149,4622.34 61.6809,4617.2 68.8269,4613.38 76.5829,4611.03 84.6469,4610.24 2270.86,4610.24 2278.93,4611.03 2286.68,4613.38 2293.83,4617.2 2300.1,4622.34 2305.24,4628.61 2309.06,4635.76 2311.41,4643.51 2312.2,4651.58 2312.2,6620.08 2311.41,6628.14 2309.06,6635.9 2305.24,6643.04 2300.1,6649.31 2293.83,6654.45 2286.68,6658.27 2278.93,6660.62 2270.86,6661.42 84.6469,6661.42 76.5829,6660.62 68.8269,6658.27 61.6809,6654.45 55.4149,6649.31 50.2749,6643.04 46.4549,6635.9 44.1029,6628.14 43.3089,6620.08" style="stroke:rgb(0,0,0);stroke-width:1px;fill:none;stroke-opacity:1;stroke-linecap:round;stroke-linejoin:round;;fill:none"/>
<polyline points="43.3089,4336.61 43.3089,2368.11 44.1029,2360.05 46.4549,2352.29 50.2749,2345.14 55.4149,2338.88 61.6809,2333.74 68.8269,2329.92 76.5829,2327.57 84.6469,2326.77 2270.86,2326.77 2278.93,2327.57 2286.68,2329.92 2293.83,2333.74 2300.1,2338.88 2305.24,2345.14 2309.06,2352.29 2311.41,2360.05 2312.2,2368.11 2312.2,4336.61 2311.41,4344.68 2309.06,4352.43 2305.24,4359.58 2300.1,4365.85 2293.83,4370.99 2286.68,4374.81 2278.93,4377.16 2270.86,4377.95 84.6469,4377.95 76.5829,4377.16 68.8269,4374.81 61.6809,4370.99 55.4149,4365.85 50.2749,4359.58 46.4549,4352.43 44.1029,4344.68 43.3089,4336.61" style="stroke:rgb(115,81,255);stroke-width:82.677165;fill:none;stroke-opacity:0.5;stroke-linecap:round;stroke-linejoin:round;;fill:none"/>
<polyline points="43.3089,4336.61 43.3089,2368.11 44.1029,2360.05 46.4549,2352.29 50.2749,2345.14 55.4149,2338.88 61.6809,2333.74 68.8269,2329.92 76.5829,2327.57 84.6469,2326.77 2270.86,2326.77 2278.93,2327.57 2286.68,2329.92 2293.83,2333.74 2300.1,2338.88 2305.24,2345.14 2309.06,2352.29 2311.41,2360.05 2312.2,2368.11 2312.2,4336.61 2311.41,4344.68 2309.06,4352.43 2305.24,4359.58 2300.1,4365.85 2293.83,4370.99 2286.68,4374.81 2278.93,4377.16 2270.86,4377.95 84.6469,4377.95 76.5829,4377.16 68.8269,4374.81 61.6809,4370.99 55.4149,4365.85 50.2749,4359.58 46.4549,4352.43 44.1029,4344.68 43.3089,4336.61" style="stroke:rgb(0,0,0);stroke-width:1px;fill:none;stroke-opacity:1;stroke-linecap:round;stroke-linejoin:round;;fill:none"/>
<polyline points="43.3089,2053.15 43.3089,84.6465 44.1029,76.5825 46.4549,68.8265 50.2749,61.6805 55.4149,55.4165 61.6809,50.2745 68.8269,46.4545 76.5829,44.1025 84.6469,43.3085 2270.86,43.3085 2278.93,44.1025 2286.68,46.4545 2293.83,50.2745 2300.1,55.4165 2305.24,61.6805 2309.06,68.8265 2311.41,76.5825 2312.2,84.6465 2312.2,2053.15 2311.41,2061.21 2309.06,2068.97 2305.24,2076.12 2300.1,2082.38 2293.83,2087.52 2286.68,2091.34 2278.93,2093.69 2270.86,2094.49 84.6469,2094.49 76.5829,2093.69 68.8269,2091.34 61.6809,2087.52 55.4149,2082.38 50.2749,2076.12 46.4549,2068.97 44.1029,2061.21 43.3089,2053.15" style="stroke:rgb(74,236,41);stroke-width:82.677165;fill:none;stroke-opacity:0.5;stroke-linecap:round;stroke-linejoin:round;;fill:none"/>
<polyline points="43.3089,2053.15 43.3089,84.6465 44.1029,76.5825 46.4549,68.8265 50.2749,61.6805 55.4149,55.4165 61.6809,50.2745 68.8269,46.4545 76.5829,44.1025 84.6469,43.3085 2270.86,43.3085 2278.93,44.1025 2286.68,46.4545 2293.83,50.2745 2300.1,55.4165 2305.24,61.6805 2309.06,68.8265 2311.41,76.5825 2312.2,84.6465 2312.2,2053.15 2311.41,2061.21 2309.06,2068.97 2305.24,2076.12 2300.1,2082.38 2293.83,2087.52 2286.68,2091.34 2278.93,2093.69 2270.86,2094.49 84.6469,2094.49 76.5829,2093.69 68.8269,2091.34 61.6809,2087.52 55.4149,2082.38 50.2749,2076.12 46.4549,2068.97 44.1029,2061.21 43.3089,2053.15" style="stroke:rgb(0,0,0);stroke-width:1px;fill:none;stroke-opacity:1;stroke-linecap:round;stroke-linejoin:round;;fill:none"/>
<polyline points="2484.25,6620.08 2484.25,4651.58 2485.04,4643.51 2487.4,4635.76 2491.22,4628.61 2496.36,4622.34 2502.62,4617.2 2509.77,4613.38 2517.52,4611.03 2525.59,4610.24 4711.81,4610.24 4719.87,4611.03 4727.63,4613.38 4734.78,4617.2 4741.04,4622.34 4746.18,4628.61 4750,4635.76 4752.35,4643.51 4753.15,4651.58 4753.15,6620.08 4752.35,6628.14 4750,6635.9 4746.18,6643.04 4741.04,6649.31 4734.78,6654.45 4727.63,6658.27 4719.87,6660.62 4711.81,6661.42 2525.59,6661.42 2517.52,6660.62 2509.77,6658.27 2502.62,6654.45 2496.36,6649.31 2491.22,6643.04 2487.4,6635.9 2485.04,6628.14 2484.25,6620.08" style="stroke:rgb(205,186,171);stroke-width:82.677165;fill:none;stroke-opacity:0.5;stroke-linecap:round;stroke-linejoin:round;;fill:none"/>
<polyline points="2484.25,6620.08 2484.25,4651.58 2485.04,4643.51 2487.4,4635.76 2491.22,4628.61 2496.36,4622.34 2502.62,4617.2 2509.77,4613.38 2517.52,4611.03 2525.59,4610.24 4711.81,4610.24 4719.87,4611.03 4727.63,4613.38 4734.78,4617.2 4741.04,4622.34 4746.18,4628.61 4750,4635.76 4752.35,4643.51 4753.15,4651.58 4753.15,6620.08 4752.35,6628.14 4750,6635.9 4746.18,6643.04 4741.04,6649.31 4734.78,6654.45 4727.63,6658.27 4719.87,6660.62 4711.81,6661.42 2525.59,6661.42 2517.52,6660.62 2509.77,6658.27 2502.62,6654.45 2496.36,6649.31 2491.22,6643.04 2487.4,6635.9 2485.04,6628.14 2484.25,6620.08" style="stroke:rgb(0,0,0);stroke-width:1px;fill:none;stroke-opacity:1;stroke-linecap:round;stroke-linejoin:round;;fill:none"/>
<polyline points="2484.25,4336.61 2484.25,2368.11 2485.04,2360.05 2487.4,2352.29 2491.22,2345.14 2496.36,2338.88 2502.62,2333.74 2509.77,2329.92 2517.52,2327.57 2525.59,2326.77 4711.81,2326.77 4719.87,2327.57 4727.63,2329.92 4734.78,2333.74 4741.04,2338.88 4746.18,2345.14 4750,2352.29 4752.35,2360.05 4753.15,2368.11 4753.15,4336.61 4752.35,4344.68 4750,4352.43 4746.18,4359.58 4741.04,4365.85 4734.78,4370.99 4727.63,4374.81 4719.87,4377.16 4711.81,4377.95 2525.59,4377.95 2517.52,4377.16 2509.77,4374.81 2502.62,4370.99 2496.36,4365.85 2491.22,4359.58 2487.4,4352.43 2485.04,4344.68 2484.25,4336.61" style="stroke:rgb(242,251,227);stroke-width:82.677165;fill:none;stroke-opacity:0.5;stroke-linecap:round;stroke-linejoin:round;;fill:none"/>
<polyline points="2484.25,4336.61 2484.25,2368.11 2485.04,2360.05 2487.4,2352.29 2491.22,2345.14 2496.36,2338.88 2502.62,2333.74 2509.77,2329.92 2517.52,2327.57 2525.59,2326.77 4711.81,2326.77 4719.87,2327.57 4727.63,2329.92 4734.78,2333.74 4741.04,2338.88 4746.18,2345.14 4750,2352.29 4752.35,2360.05 4753.15,2368.11 4753.15,4336.61 4752.35,4344.68 4750,4352.43 4746.18,4359.58 4741.04,4365.85 4734.78,4370.99 4727.63,4374.81 4719.87,4377.16 4711.81,4377.95 2525.59,4377.95 2517.52,4377.16 2509.77,4374.81 2502.62,4370.99 2496.36,4365.85 2491.22,4359.58 2487.4,4352.43 2485.04,4344.68 2484.25,4336.61" style="stroke:rgb(0,0,0);stroke-width:1px;fill:none;stroke-opacity:1;stroke-linecap:round;stroke-linejoin:round;;fill:none"/>
<polyline points="2484.25,2053.15 2484.25,84.6465 2485.04,76.5825 2487.4,68.8265 2491.22,61.6805 2496.36,55.4165 2502.62,50.2745 2509.77,46.4545 2517.52,44.1025 2525.59,43.3085 4711.81,43.3085 4719.87,44.1025 4727.63,46.4545 4734.78,50.2745 4741.04,55.4165 4746.18,61.6805 4750,68.8265 4752.35,76.5825 4753.15,84.6465 4753.15,2053.15 4752.35,2061.21 4750,2068.97 4746.18,2076.12 4741.04,2082.38 4734.78,2087.52 4727.63,2091.34 4719.87,2093.69 4711.81,2094.49 2525.59,2094.49 2517.52,2093.69 2509.77,2091.34 2502.62,2087.52 2496.36,2082.38 2491.22,2076.12 2487.4,2068.97 2485.04,2061.21 2484.25,2053.15" style="stroke:rgb(70,124,194);stroke-width:82.677165;fill:none;stroke-opacity:0.5;stroke-linecap:round;stroke-linejoin:round;;fill:none"/>
<polyline points="2484.25,2053.15 2484.25,84.6465 2485.04,76.5825 2487.4,68.8265 2491.22,61.6805 2496.36,55.4165 2502.62,50.2745 2509.77,46.4545 2517.52,44.1025 2525.59,43.3085 4711.81,43.3085 4719.87,44.1025 4727.63,46.4545 4734.78,50.2745 4741.04,55.4165 4746.18,61.6805 4750,68.8265 4752.35,76.5825 4753.15,84.6465 4753.15,2053.15 4752.35,2061.21 4750,2068.97 4746.18,2076.12 4741.04,2082.38 4734.78,2087.52 4727.63,2091.34 4719.87,2093.69 4711.81,2094.49 2525.59,2094.49 2517.52,2093.69 2509.77,2091.34 2502.62,2087.52 2496.36,2082.38 2491.22,2076.12 2487.4,2068.97 2485.04,2061.21 2484.25,2053.15" style="stroke:rgb(0,0,0);stroke-width:1px;fill:none;stroke-opacity:1;stroke-linecap:round;stroke-linejoin:round;;fill:none"/>
<g fill-rule="evenodd"><path d="M 2270.87,4651.57 L 2270.87,6620.08 L 84.6457,6620.08 L 84.6457,4651.57 L 2270.87,4651.57 z " style="fill-opacity:1.000000;fill:rgb(103,198,105);stroke:rgb(0,0,0);stroke-width:2"/></g>
<g fill-rule="evenodd"><path d="M 2270.87,2368.11 L 2270.87,4336.61 L 84.6457,4336.61 L 84.6457,2368.11 L 2270.87,2368.11 z " style="fill-opacity:1.000000;fill:rgb(115,81,255);stroke:rgb(0,0,0);stroke-width:2"/></g>
<g fill-rule="evenodd"><path d="M 2270.87,84.6457 L 2270.87,2053.15 L 84.6457,2053.15 L 84.6457,84.6457 L 2270.87,84.6457 z " style="fill-opacity:1.000000;fill:rgb(74,236,41);stroke:rgb(0,0,0);stroke-width:2"/></g>
<g fill-rule="evenodd"><path d="M 4711.81,4651.57 L 4711.81,6620.08 L 2525.59,6620.08 L 2525.59,4651.57 L 4711.81,4651.57 z " style="fill-opacity:1.000000;fill:rgb(205,186,171);stroke:rgb(0,0,0);stroke-width:2"/></g>
<g fill-rule="evenodd"><path d="M 4711.81,2368.11 L 4711.81,4336.61 L 2525.59,4336.61 L 2525.59,2368.11 L 4711.81,2368.11 z " style="fill-opacity:1.000000;fill:rgb(242,251,227);stroke:rgb(0,0,0);stroke-width:2"/></g>
<g fill-rule="evenodd"><path d="M 4711.81,84.6457 L 4711.81,2053.15 L 2525.59,2053.15 L 2525.59,84.6457 L 4711.81,84.6457 z " style="fill-opacity:1.000000;fill:rgb(70,124,194);stroke:rgb(0,0,0);stroke-width:2"/></g>
</svg>
