G04 #@! TF.GenerationSoftware,KiCad,Pcbnew,5.1.9*
G04 #@! TF.CreationDate,2021-04-02T13:12:58+02:00*
G04 #@! TF.ProjectId,detectorHolder,64657465-6374-46f7-9248-6f6c6465722e,rev?*
G04 #@! TF.SameCoordinates,Original*
G04 #@! TF.FileFunction,Soldermask,Top*
G04 #@! TF.FilePolarity,Negative*
%FSLAX46Y46*%
G04 Gerber Fmt 4.6, Leading zero omitted, Abs format (unit mm)*
G04 Created by KiCad (PCBNEW 5.1.9) date 2021-04-02 13:12:58*
%MOMM*%
%LPD*%
G01*
G04 APERTURE LIST*
%ADD10C,4.700000*%
%ADD11C,1.524000*%
%ADD12R,1.500000X1.500000*%
G04 APERTURE END LIST*
G36*
G01*
X125418002Y-100543000D02*
X124517998Y-100543000D01*
G75*
G02*
X124268000Y-100293002I0J249998D01*
G01*
X124268000Y-99767998D01*
G75*
G02*
X124517998Y-99518000I249998J0D01*
G01*
X125418002Y-99518000D01*
G75*
G02*
X125668000Y-99767998I0J-249998D01*
G01*
X125668000Y-100293002D01*
G75*
G02*
X125418002Y-100543000I-249998J0D01*
G01*
G37*
G36*
G01*
X125418002Y-102368000D02*
X124517998Y-102368000D01*
G75*
G02*
X124268000Y-102118002I0J249998D01*
G01*
X124268000Y-101592998D01*
G75*
G02*
X124517998Y-101343000I249998J0D01*
G01*
X125418002Y-101343000D01*
G75*
G02*
X125668000Y-101592998I0J-249998D01*
G01*
X125668000Y-102118002D01*
G75*
G02*
X125418002Y-102368000I-249998J0D01*
G01*
G37*
G36*
G01*
X125469250Y-104903000D02*
X124556750Y-104903000D01*
G75*
G02*
X124313000Y-104659250I0J243750D01*
G01*
X124313000Y-104171750D01*
G75*
G02*
X124556750Y-103928000I243750J0D01*
G01*
X125469250Y-103928000D01*
G75*
G02*
X125713000Y-104171750I0J-243750D01*
G01*
X125713000Y-104659250D01*
G75*
G02*
X125469250Y-104903000I-243750J0D01*
G01*
G37*
G36*
G01*
X125469250Y-106778000D02*
X124556750Y-106778000D01*
G75*
G02*
X124313000Y-106534250I0J243750D01*
G01*
X124313000Y-106046750D01*
G75*
G02*
X124556750Y-105803000I243750J0D01*
G01*
X125469250Y-105803000D01*
G75*
G02*
X125713000Y-106046750I0J-243750D01*
G01*
X125713000Y-106534250D01*
G75*
G02*
X125469250Y-106778000I-243750J0D01*
G01*
G37*
G36*
G01*
X106013000Y-99753000D02*
X103513000Y-99753000D01*
G75*
G02*
X103263000Y-99503000I0J250000D01*
G01*
X103263000Y-98403000D01*
G75*
G02*
X103513000Y-98153000I250000J0D01*
G01*
X106013000Y-98153000D01*
G75*
G02*
X106263000Y-98403000I0J-250000D01*
G01*
X106263000Y-99503000D01*
G75*
G02*
X106013000Y-99753000I-250000J0D01*
G01*
G37*
G36*
G01*
X106013000Y-108553000D02*
X103513000Y-108553000D01*
G75*
G02*
X103263000Y-108303000I0J250000D01*
G01*
X103263000Y-107203000D01*
G75*
G02*
X103513000Y-106953000I250000J0D01*
G01*
X106013000Y-106953000D01*
G75*
G02*
X106263000Y-107203000I0J-250000D01*
G01*
X106263000Y-108303000D01*
G75*
G02*
X106013000Y-108553000I-250000J0D01*
G01*
G37*
G36*
G01*
X109513000Y-101853000D02*
X104513000Y-101853000D01*
G75*
G02*
X104263000Y-101603000I0J250000D01*
G01*
X104263000Y-101103000D01*
G75*
G02*
X104513000Y-100853000I250000J0D01*
G01*
X109513000Y-100853000D01*
G75*
G02*
X109763000Y-101103000I0J-250000D01*
G01*
X109763000Y-101603000D01*
G75*
G02*
X109513000Y-101853000I-250000J0D01*
G01*
G37*
G36*
G01*
X109513000Y-103853000D02*
X104513000Y-103853000D01*
G75*
G02*
X104263000Y-103603000I0J250000D01*
G01*
X104263000Y-103103000D01*
G75*
G02*
X104513000Y-102853000I250000J0D01*
G01*
X109513000Y-102853000D01*
G75*
G02*
X109763000Y-103103000I0J-250000D01*
G01*
X109763000Y-103603000D01*
G75*
G02*
X109513000Y-103853000I-250000J0D01*
G01*
G37*
G36*
G01*
X109513000Y-105853000D02*
X104513000Y-105853000D01*
G75*
G02*
X104263000Y-105603000I0J250000D01*
G01*
X104263000Y-105103000D01*
G75*
G02*
X104513000Y-104853000I250000J0D01*
G01*
X109513000Y-104853000D01*
G75*
G02*
X109763000Y-105103000I0J-250000D01*
G01*
X109763000Y-105603000D01*
G75*
G02*
X109513000Y-105853000I-250000J0D01*
G01*
G37*
D10*
X125013000Y-112353000D03*
X125013000Y-94353000D03*
X104513000Y-112353000D03*
X104513000Y-94353000D03*
G36*
G01*
X117533000Y-98984750D02*
X117533000Y-99897250D01*
G75*
G02*
X117289250Y-100141000I-243750J0D01*
G01*
X116801750Y-100141000D01*
G75*
G02*
X116558000Y-99897250I0J243750D01*
G01*
X116558000Y-98984750D01*
G75*
G02*
X116801750Y-98741000I243750J0D01*
G01*
X117289250Y-98741000D01*
G75*
G02*
X117533000Y-98984750I0J-243750D01*
G01*
G37*
G36*
G01*
X119408000Y-98984750D02*
X119408000Y-99897250D01*
G75*
G02*
X119164250Y-100141000I-243750J0D01*
G01*
X118676750Y-100141000D01*
G75*
G02*
X118433000Y-99897250I0J243750D01*
G01*
X118433000Y-98984750D01*
G75*
G02*
X118676750Y-98741000I243750J0D01*
G01*
X119164250Y-98741000D01*
G75*
G02*
X119408000Y-98984750I0J-243750D01*
G01*
G37*
D11*
X116433000Y-101828000D03*
X116433000Y-104928000D03*
X119533000Y-101828000D03*
D12*
X119533000Y-104928000D03*
M02*
