G04 #@! TF.GenerationSoftware,KiCad,Pcbnew,5.1.9*
G04 #@! TF.CreationDate,2021-04-02T13:12:58+02:00*
G04 #@! TF.ProjectId,detectorHolder,64657465-6374-46f7-9248-6f6c6465722e,rev?*
G04 #@! TF.SameCoordinates,Original*
G04 #@! TF.FileFunction,Copper,L1,Top*
G04 #@! TF.FilePolarity,Positive*
%FSLAX46Y46*%
G04 Gerber Fmt 4.6, Leading zero omitted, Abs format (unit mm)*
G04 Created by KiCad (PCBNEW 5.1.9) date 2021-04-02 13:12:58*
%MOMM*%
%LPD*%
G01*
G04 APERTURE LIST*
G04 #@! TA.AperFunction,NonConductor*
%ADD10C,0.100000*%
G04 #@! TD*
G04 #@! TA.AperFunction,ComponentPad*
%ADD11C,4.700000*%
G04 #@! TD*
G04 #@! TA.AperFunction,ComponentPad*
%ADD12C,1.524000*%
G04 #@! TD*
G04 #@! TA.AperFunction,ComponentPad*
%ADD13R,1.500000X1.500000*%
G04 #@! TD*
G04 #@! TA.AperFunction,ViaPad*
%ADD14C,0.800000*%
G04 #@! TD*
G04 #@! TA.AperFunction,Conductor*
%ADD15C,0.500000*%
G04 #@! TD*
G04 #@! TA.AperFunction,Conductor*
%ADD16C,0.750000*%
G04 #@! TD*
G04 #@! TA.AperFunction,Conductor*
%ADD17C,0.254000*%
G04 #@! TD*
G04 #@! TA.AperFunction,Conductor*
%ADD18C,0.100000*%
G04 #@! TD*
G04 APERTURE END LIST*
D10*
X109893714Y-95992904D02*
X109893714Y-95192904D01*
X110160380Y-95764333D01*
X110427047Y-95192904D01*
X110427047Y-95992904D01*
X110922285Y-95992904D02*
X110846095Y-95954809D01*
X110808000Y-95916714D01*
X110769904Y-95840523D01*
X110769904Y-95611952D01*
X110808000Y-95535761D01*
X110846095Y-95497666D01*
X110922285Y-95459571D01*
X111036571Y-95459571D01*
X111112761Y-95497666D01*
X111150857Y-95535761D01*
X111188952Y-95611952D01*
X111188952Y-95840523D01*
X111150857Y-95916714D01*
X111112761Y-95954809D01*
X111036571Y-95992904D01*
X110922285Y-95992904D01*
X111531809Y-95992904D02*
X111531809Y-95192904D01*
X111988952Y-95992904D01*
X111988952Y-95192904D01*
X112484190Y-95992904D02*
X112408000Y-95954809D01*
X112369904Y-95916714D01*
X112331809Y-95840523D01*
X112331809Y-95611952D01*
X112369904Y-95535761D01*
X112408000Y-95497666D01*
X112484190Y-95459571D01*
X112598476Y-95459571D01*
X112674666Y-95497666D01*
X112712761Y-95535761D01*
X112750857Y-95611952D01*
X112750857Y-95840523D01*
X112712761Y-95916714D01*
X112674666Y-95954809D01*
X112598476Y-95992904D01*
X112484190Y-95992904D01*
X112979428Y-95269095D02*
X113131809Y-95154809D01*
X113284190Y-95269095D01*
X113436571Y-95269095D02*
X113588952Y-95154809D01*
X113741333Y-95269095D01*
X114274666Y-95573857D02*
X114388952Y-95611952D01*
X114427047Y-95650047D01*
X114465142Y-95726238D01*
X114465142Y-95840523D01*
X114427047Y-95916714D01*
X114388952Y-95954809D01*
X114312761Y-95992904D01*
X114008000Y-95992904D01*
X114008000Y-95192904D01*
X114274666Y-95192904D01*
X114350857Y-95231000D01*
X114388952Y-95269095D01*
X114427047Y-95345285D01*
X114427047Y-95421476D01*
X114388952Y-95497666D01*
X114350857Y-95535761D01*
X114274666Y-95573857D01*
X114008000Y-95573857D01*
X115265142Y-95992904D02*
X114998476Y-95611952D01*
X114808000Y-95992904D02*
X114808000Y-95192904D01*
X115112761Y-95192904D01*
X115188952Y-95231000D01*
X115227047Y-95269095D01*
X115265142Y-95345285D01*
X115265142Y-95459571D01*
X115227047Y-95535761D01*
X115188952Y-95573857D01*
X115112761Y-95611952D01*
X114808000Y-95611952D01*
X115608000Y-95573857D02*
X115874666Y-95573857D01*
X115988952Y-95992904D02*
X115608000Y-95992904D01*
X115608000Y-95192904D01*
X115988952Y-95192904D01*
X116255619Y-95192904D02*
X116446095Y-95992904D01*
X116598476Y-95421476D01*
X116750857Y-95992904D01*
X116941333Y-95192904D01*
X117969904Y-95992904D02*
X117893714Y-95954809D01*
X117855619Y-95878619D01*
X117855619Y-95192904D01*
X118617523Y-95992904D02*
X118617523Y-95573857D01*
X118579428Y-95497666D01*
X118503238Y-95459571D01*
X118350857Y-95459571D01*
X118274666Y-95497666D01*
X118617523Y-95954809D02*
X118541333Y-95992904D01*
X118350857Y-95992904D01*
X118274666Y-95954809D01*
X118236571Y-95878619D01*
X118236571Y-95802428D01*
X118274666Y-95726238D01*
X118350857Y-95688142D01*
X118541333Y-95688142D01*
X118617523Y-95650047D01*
X118998476Y-95992904D02*
X118998476Y-95192904D01*
X118998476Y-95497666D02*
X119074666Y-95459571D01*
X119227047Y-95459571D01*
X119303238Y-95497666D01*
X119341333Y-95535761D01*
X119379428Y-95611952D01*
X119379428Y-95840523D01*
X119341333Y-95916714D01*
X119303238Y-95954809D01*
X119227047Y-95992904D01*
X119074666Y-95992904D01*
X118998476Y-95954809D01*
X119722285Y-95916714D02*
X119760380Y-95954809D01*
X119722285Y-95992904D01*
X119684190Y-95954809D01*
X119722285Y-95916714D01*
X119722285Y-95992904D01*
G04 #@! TA.AperFunction,SMDPad,CuDef*
G36*
G01*
X125418002Y-100543000D02*
X124517998Y-100543000D01*
G75*
G02*
X124268000Y-100293002I0J249998D01*
G01*
X124268000Y-99767998D01*
G75*
G02*
X124517998Y-99518000I249998J0D01*
G01*
X125418002Y-99518000D01*
G75*
G02*
X125668000Y-99767998I0J-249998D01*
G01*
X125668000Y-100293002D01*
G75*
G02*
X125418002Y-100543000I-249998J0D01*
G01*
G37*
G04 #@! TD.AperFunction*
G04 #@! TA.AperFunction,SMDPad,CuDef*
G36*
G01*
X125418002Y-102368000D02*
X124517998Y-102368000D01*
G75*
G02*
X124268000Y-102118002I0J249998D01*
G01*
X124268000Y-101592998D01*
G75*
G02*
X124517998Y-101343000I249998J0D01*
G01*
X125418002Y-101343000D01*
G75*
G02*
X125668000Y-101592998I0J-249998D01*
G01*
X125668000Y-102118002D01*
G75*
G02*
X125418002Y-102368000I-249998J0D01*
G01*
G37*
G04 #@! TD.AperFunction*
G04 #@! TA.AperFunction,SMDPad,CuDef*
G36*
G01*
X125469250Y-104903000D02*
X124556750Y-104903000D01*
G75*
G02*
X124313000Y-104659250I0J243750D01*
G01*
X124313000Y-104171750D01*
G75*
G02*
X124556750Y-103928000I243750J0D01*
G01*
X125469250Y-103928000D01*
G75*
G02*
X125713000Y-104171750I0J-243750D01*
G01*
X125713000Y-104659250D01*
G75*
G02*
X125469250Y-104903000I-243750J0D01*
G01*
G37*
G04 #@! TD.AperFunction*
G04 #@! TA.AperFunction,SMDPad,CuDef*
G36*
G01*
X125469250Y-106778000D02*
X124556750Y-106778000D01*
G75*
G02*
X124313000Y-106534250I0J243750D01*
G01*
X124313000Y-106046750D01*
G75*
G02*
X124556750Y-105803000I243750J0D01*
G01*
X125469250Y-105803000D01*
G75*
G02*
X125713000Y-106046750I0J-243750D01*
G01*
X125713000Y-106534250D01*
G75*
G02*
X125469250Y-106778000I-243750J0D01*
G01*
G37*
G04 #@! TD.AperFunction*
G04 #@! TA.AperFunction,SMDPad,CuDef*
G36*
G01*
X106013000Y-99753000D02*
X103513000Y-99753000D01*
G75*
G02*
X103263000Y-99503000I0J250000D01*
G01*
X103263000Y-98403000D01*
G75*
G02*
X103513000Y-98153000I250000J0D01*
G01*
X106013000Y-98153000D01*
G75*
G02*
X106263000Y-98403000I0J-250000D01*
G01*
X106263000Y-99503000D01*
G75*
G02*
X106013000Y-99753000I-250000J0D01*
G01*
G37*
G04 #@! TD.AperFunction*
G04 #@! TA.AperFunction,SMDPad,CuDef*
G36*
G01*
X106013000Y-108553000D02*
X103513000Y-108553000D01*
G75*
G02*
X103263000Y-108303000I0J250000D01*
G01*
X103263000Y-107203000D01*
G75*
G02*
X103513000Y-106953000I250000J0D01*
G01*
X106013000Y-106953000D01*
G75*
G02*
X106263000Y-107203000I0J-250000D01*
G01*
X106263000Y-108303000D01*
G75*
G02*
X106013000Y-108553000I-250000J0D01*
G01*
G37*
G04 #@! TD.AperFunction*
G04 #@! TA.AperFunction,SMDPad,CuDef*
G36*
G01*
X109513000Y-101853000D02*
X104513000Y-101853000D01*
G75*
G02*
X104263000Y-101603000I0J250000D01*
G01*
X104263000Y-101103000D01*
G75*
G02*
X104513000Y-100853000I250000J0D01*
G01*
X109513000Y-100853000D01*
G75*
G02*
X109763000Y-101103000I0J-250000D01*
G01*
X109763000Y-101603000D01*
G75*
G02*
X109513000Y-101853000I-250000J0D01*
G01*
G37*
G04 #@! TD.AperFunction*
G04 #@! TA.AperFunction,SMDPad,CuDef*
G36*
G01*
X109513000Y-103853000D02*
X104513000Y-103853000D01*
G75*
G02*
X104263000Y-103603000I0J250000D01*
G01*
X104263000Y-103103000D01*
G75*
G02*
X104513000Y-102853000I250000J0D01*
G01*
X109513000Y-102853000D01*
G75*
G02*
X109763000Y-103103000I0J-250000D01*
G01*
X109763000Y-103603000D01*
G75*
G02*
X109513000Y-103853000I-250000J0D01*
G01*
G37*
G04 #@! TD.AperFunction*
G04 #@! TA.AperFunction,SMDPad,CuDef*
G36*
G01*
X109513000Y-105853000D02*
X104513000Y-105853000D01*
G75*
G02*
X104263000Y-105603000I0J250000D01*
G01*
X104263000Y-105103000D01*
G75*
G02*
X104513000Y-104853000I250000J0D01*
G01*
X109513000Y-104853000D01*
G75*
G02*
X109763000Y-105103000I0J-250000D01*
G01*
X109763000Y-105603000D01*
G75*
G02*
X109513000Y-105853000I-250000J0D01*
G01*
G37*
G04 #@! TD.AperFunction*
D11*
X125013000Y-112353000D03*
X125013000Y-94353000D03*
X104513000Y-112353000D03*
X104513000Y-94353000D03*
G04 #@! TA.AperFunction,SMDPad,CuDef*
G36*
G01*
X117533000Y-98984750D02*
X117533000Y-99897250D01*
G75*
G02*
X117289250Y-100141000I-243750J0D01*
G01*
X116801750Y-100141000D01*
G75*
G02*
X116558000Y-99897250I0J243750D01*
G01*
X116558000Y-98984750D01*
G75*
G02*
X116801750Y-98741000I243750J0D01*
G01*
X117289250Y-98741000D01*
G75*
G02*
X117533000Y-98984750I0J-243750D01*
G01*
G37*
G04 #@! TD.AperFunction*
G04 #@! TA.AperFunction,SMDPad,CuDef*
G36*
G01*
X119408000Y-98984750D02*
X119408000Y-99897250D01*
G75*
G02*
X119164250Y-100141000I-243750J0D01*
G01*
X118676750Y-100141000D01*
G75*
G02*
X118433000Y-99897250I0J243750D01*
G01*
X118433000Y-98984750D01*
G75*
G02*
X118676750Y-98741000I243750J0D01*
G01*
X119164250Y-98741000D01*
G75*
G02*
X119408000Y-98984750I0J-243750D01*
G01*
G37*
G04 #@! TD.AperFunction*
D12*
X116433000Y-101828000D03*
X116433000Y-104928000D03*
X119533000Y-101828000D03*
D13*
X119533000Y-104928000D03*
D14*
X114681000Y-97663000D03*
X102489000Y-98933000D03*
X102489000Y-107696000D03*
X117983000Y-103251000D03*
X114681000Y-92964000D03*
X123952000Y-103124000D03*
D15*
X117045500Y-101215500D02*
X116433000Y-101828000D01*
X117045500Y-99441000D02*
X117045500Y-101215500D01*
X103812990Y-100813044D02*
X104423024Y-100203010D01*
X103812990Y-102902990D02*
X103812990Y-100813044D01*
X104263000Y-103353000D02*
X103812990Y-102902990D01*
X104423024Y-100203010D02*
X114680990Y-100203010D01*
X107013000Y-103353000D02*
X104263000Y-103353000D01*
X115443000Y-99441000D02*
X117045500Y-99441000D01*
X114680990Y-100203010D02*
X115443000Y-99441000D01*
D16*
X107013000Y-105353000D02*
X113849000Y-105353000D01*
X114274000Y-104928000D02*
X116433000Y-104928000D01*
X113849000Y-105353000D02*
X114274000Y-104928000D01*
X116433000Y-104928000D02*
X119533000Y-104928000D01*
X122854500Y-100030500D02*
X124968000Y-100030500D01*
X122047000Y-100838000D02*
X122854500Y-100030500D01*
X122047000Y-104140000D02*
X122047000Y-100838000D01*
X121259000Y-104928000D02*
X122047000Y-104140000D01*
X119533000Y-104928000D02*
X121259000Y-104928000D01*
D15*
X124968000Y-104370500D02*
X125013000Y-104415500D01*
X124968000Y-101855500D02*
X124968000Y-104370500D01*
D17*
X122796542Y-91652238D02*
X122312238Y-92136542D01*
X121931722Y-92706023D01*
X121669619Y-93338796D01*
X121536000Y-94010545D01*
X121536000Y-94695455D01*
X121669619Y-95367204D01*
X121931722Y-95999977D01*
X122312238Y-96569458D01*
X122796542Y-97053762D01*
X123366023Y-97434278D01*
X123998796Y-97696381D01*
X124670545Y-97830000D01*
X125355455Y-97830000D01*
X126027204Y-97696381D01*
X126659977Y-97434278D01*
X127229458Y-97053762D01*
X127713762Y-96569458D01*
X127886000Y-96311686D01*
X127886000Y-110394314D01*
X127713762Y-110136542D01*
X127229458Y-109652238D01*
X126659977Y-109271722D01*
X126027204Y-109009619D01*
X125355455Y-108876000D01*
X124670545Y-108876000D01*
X123998796Y-109009619D01*
X123366023Y-109271722D01*
X122796542Y-109652238D01*
X122312238Y-110136542D01*
X121931722Y-110706023D01*
X121669619Y-111338796D01*
X121536000Y-112010545D01*
X121536000Y-112695455D01*
X121669619Y-113367204D01*
X121931722Y-113999977D01*
X122312238Y-114569458D01*
X122796542Y-115053762D01*
X123054314Y-115226000D01*
X106471686Y-115226000D01*
X106729458Y-115053762D01*
X107213762Y-114569458D01*
X107594278Y-113999977D01*
X107856381Y-113367204D01*
X107990000Y-112695455D01*
X107990000Y-112010545D01*
X107856381Y-111338796D01*
X107594278Y-110706023D01*
X107213762Y-110136542D01*
X106729458Y-109652238D01*
X106159977Y-109271722D01*
X105527204Y-109009619D01*
X105156306Y-108935843D01*
X106013000Y-108935843D01*
X106136462Y-108923683D01*
X106255179Y-108887671D01*
X106364589Y-108829190D01*
X106460488Y-108750488D01*
X106539190Y-108654589D01*
X106597671Y-108545179D01*
X106633683Y-108426462D01*
X106645843Y-108303000D01*
X106645843Y-107203000D01*
X106633683Y-107079538D01*
X106597671Y-106960821D01*
X106539190Y-106851411D01*
X106478944Y-106778000D01*
X123930157Y-106778000D01*
X123937513Y-106852689D01*
X123959299Y-106924508D01*
X123994678Y-106990696D01*
X124042289Y-107048711D01*
X124100304Y-107096322D01*
X124166492Y-107131701D01*
X124238311Y-107153487D01*
X124313000Y-107160843D01*
X124790750Y-107159000D01*
X124886000Y-107063750D01*
X124886000Y-106417500D01*
X125140000Y-106417500D01*
X125140000Y-107063750D01*
X125235250Y-107159000D01*
X125713000Y-107160843D01*
X125787689Y-107153487D01*
X125859508Y-107131701D01*
X125925696Y-107096322D01*
X125983711Y-107048711D01*
X126031322Y-106990696D01*
X126066701Y-106924508D01*
X126088487Y-106852689D01*
X126095843Y-106778000D01*
X126094000Y-106512750D01*
X125998750Y-106417500D01*
X125140000Y-106417500D01*
X124886000Y-106417500D01*
X124027250Y-106417500D01*
X123932000Y-106512750D01*
X123930157Y-106778000D01*
X106478944Y-106778000D01*
X106460488Y-106755512D01*
X106364589Y-106676810D01*
X106255179Y-106618329D01*
X106136462Y-106582317D01*
X106013000Y-106570157D01*
X103513000Y-106570157D01*
X103389538Y-106582317D01*
X103270821Y-106618329D01*
X103161411Y-106676810D01*
X103065512Y-106755512D01*
X102986810Y-106851411D01*
X102928329Y-106960821D01*
X102892317Y-107079538D01*
X102880157Y-107203000D01*
X102880157Y-108303000D01*
X102892317Y-108426462D01*
X102928329Y-108545179D01*
X102986810Y-108654589D01*
X103065512Y-108750488D01*
X103161411Y-108829190D01*
X103270821Y-108887671D01*
X103389538Y-108923683D01*
X103513000Y-108935843D01*
X103869694Y-108935843D01*
X103498796Y-109009619D01*
X102866023Y-109271722D01*
X102296542Y-109652238D01*
X101812238Y-110136542D01*
X101640000Y-110394314D01*
X101640000Y-105103000D01*
X103880157Y-105103000D01*
X103880157Y-105603000D01*
X103892317Y-105726462D01*
X103928329Y-105845179D01*
X103986810Y-105954589D01*
X104065512Y-106050488D01*
X104161411Y-106129190D01*
X104270821Y-106187671D01*
X104389538Y-106223683D01*
X104513000Y-106235843D01*
X109513000Y-106235843D01*
X109636462Y-106223683D01*
X109755179Y-106187671D01*
X109864589Y-106129190D01*
X109889191Y-106109000D01*
X113811871Y-106109000D01*
X113849000Y-106112657D01*
X113886129Y-106109000D01*
X113997202Y-106098060D01*
X114139708Y-106054832D01*
X114271043Y-105984632D01*
X114386159Y-105890159D01*
X114409837Y-105861307D01*
X114587144Y-105684000D01*
X115572554Y-105684000D01*
X115704380Y-105815826D01*
X115891587Y-105940913D01*
X116099599Y-106027075D01*
X116320424Y-106071000D01*
X116545576Y-106071000D01*
X116766401Y-106027075D01*
X116974413Y-105940913D01*
X117161620Y-105815826D01*
X117293446Y-105684000D01*
X118400748Y-105684000D01*
X118407513Y-105752689D01*
X118429299Y-105824508D01*
X118464678Y-105890696D01*
X118512289Y-105948711D01*
X118570304Y-105996322D01*
X118636492Y-106031701D01*
X118708311Y-106053487D01*
X118783000Y-106060843D01*
X120283000Y-106060843D01*
X120357689Y-106053487D01*
X120429508Y-106031701D01*
X120495696Y-105996322D01*
X120553711Y-105948711D01*
X120601322Y-105890696D01*
X120636701Y-105824508D01*
X120643225Y-105803000D01*
X123930157Y-105803000D01*
X123932000Y-106068250D01*
X124027250Y-106163500D01*
X124886000Y-106163500D01*
X124886000Y-105517250D01*
X125140000Y-105517250D01*
X125140000Y-106163500D01*
X125998750Y-106163500D01*
X126094000Y-106068250D01*
X126095843Y-105803000D01*
X126088487Y-105728311D01*
X126066701Y-105656492D01*
X126031322Y-105590304D01*
X125983711Y-105532289D01*
X125925696Y-105484678D01*
X125859508Y-105449299D01*
X125787689Y-105427513D01*
X125713000Y-105420157D01*
X125235250Y-105422000D01*
X125140000Y-105517250D01*
X124886000Y-105517250D01*
X124790750Y-105422000D01*
X124313000Y-105420157D01*
X124238311Y-105427513D01*
X124166492Y-105449299D01*
X124100304Y-105484678D01*
X124042289Y-105532289D01*
X123994678Y-105590304D01*
X123959299Y-105656492D01*
X123937513Y-105728311D01*
X123930157Y-105803000D01*
X120643225Y-105803000D01*
X120658487Y-105752689D01*
X120665252Y-105684000D01*
X121221871Y-105684000D01*
X121259000Y-105687657D01*
X121296129Y-105684000D01*
X121407202Y-105673060D01*
X121549708Y-105629832D01*
X121681043Y-105559632D01*
X121796159Y-105465159D01*
X121819838Y-105436306D01*
X122555312Y-104700832D01*
X122584159Y-104677159D01*
X122678632Y-104562043D01*
X122748832Y-104430708D01*
X122792060Y-104288202D01*
X122798415Y-104223683D01*
X122806657Y-104140001D01*
X122803000Y-104102872D01*
X122803000Y-101592998D01*
X123885157Y-101592998D01*
X123885157Y-102118002D01*
X123897317Y-102241463D01*
X123933329Y-102360180D01*
X123991810Y-102469590D01*
X124070512Y-102565488D01*
X124166410Y-102644190D01*
X124275820Y-102702671D01*
X124337000Y-102721230D01*
X124337001Y-103586776D01*
X124316963Y-103592854D01*
X124208634Y-103650757D01*
X124113682Y-103728682D01*
X124035757Y-103823634D01*
X123977854Y-103931963D01*
X123942197Y-104049508D01*
X123930157Y-104171750D01*
X123930157Y-104659250D01*
X123942197Y-104781492D01*
X123977854Y-104899037D01*
X124035757Y-105007366D01*
X124113682Y-105102318D01*
X124208634Y-105180243D01*
X124316963Y-105238146D01*
X124434508Y-105273803D01*
X124556750Y-105285843D01*
X125469250Y-105285843D01*
X125591492Y-105273803D01*
X125709037Y-105238146D01*
X125817366Y-105180243D01*
X125912318Y-105102318D01*
X125990243Y-105007366D01*
X126048146Y-104899037D01*
X126083803Y-104781492D01*
X126095843Y-104659250D01*
X126095843Y-104171750D01*
X126083803Y-104049508D01*
X126048146Y-103931963D01*
X125990243Y-103823634D01*
X125912318Y-103728682D01*
X125817366Y-103650757D01*
X125709037Y-103592854D01*
X125599000Y-103559475D01*
X125599000Y-102721230D01*
X125660180Y-102702671D01*
X125769590Y-102644190D01*
X125865488Y-102565488D01*
X125944190Y-102469590D01*
X126002671Y-102360180D01*
X126038683Y-102241463D01*
X126050843Y-102118002D01*
X126050843Y-101592998D01*
X126038683Y-101469537D01*
X126002671Y-101350820D01*
X125944190Y-101241410D01*
X125865488Y-101145512D01*
X125769590Y-101066810D01*
X125660180Y-101008329D01*
X125541463Y-100972317D01*
X125418002Y-100960157D01*
X124517998Y-100960157D01*
X124394537Y-100972317D01*
X124275820Y-101008329D01*
X124166410Y-101066810D01*
X124070512Y-101145512D01*
X123991810Y-101241410D01*
X123933329Y-101350820D01*
X123897317Y-101469537D01*
X123885157Y-101592998D01*
X122803000Y-101592998D01*
X122803000Y-101151144D01*
X123167645Y-100786500D01*
X124126577Y-100786500D01*
X124166410Y-100819190D01*
X124275820Y-100877671D01*
X124394537Y-100913683D01*
X124517998Y-100925843D01*
X125418002Y-100925843D01*
X125541463Y-100913683D01*
X125660180Y-100877671D01*
X125769590Y-100819190D01*
X125865488Y-100740488D01*
X125944190Y-100644590D01*
X126002671Y-100535180D01*
X126038683Y-100416463D01*
X126050843Y-100293002D01*
X126050843Y-99767998D01*
X126038683Y-99644537D01*
X126002671Y-99525820D01*
X125944190Y-99416410D01*
X125865488Y-99320512D01*
X125769590Y-99241810D01*
X125660180Y-99183329D01*
X125541463Y-99147317D01*
X125418002Y-99135157D01*
X124517998Y-99135157D01*
X124394537Y-99147317D01*
X124275820Y-99183329D01*
X124166410Y-99241810D01*
X124126577Y-99274500D01*
X122891628Y-99274500D01*
X122854499Y-99270843D01*
X122706297Y-99285440D01*
X122663069Y-99298553D01*
X122563792Y-99328668D01*
X122432457Y-99398868D01*
X122317341Y-99493341D01*
X122293666Y-99522189D01*
X121538689Y-100277167D01*
X121509842Y-100300841D01*
X121415369Y-100415957D01*
X121370822Y-100499299D01*
X121345169Y-100547292D01*
X121301940Y-100689799D01*
X121287343Y-100838000D01*
X121291001Y-100875139D01*
X121291000Y-103826855D01*
X120945856Y-104172000D01*
X120665252Y-104172000D01*
X120658487Y-104103311D01*
X120636701Y-104031492D01*
X120601322Y-103965304D01*
X120553711Y-103907289D01*
X120495696Y-103859678D01*
X120429508Y-103824299D01*
X120357689Y-103802513D01*
X120283000Y-103795157D01*
X118783000Y-103795157D01*
X118708311Y-103802513D01*
X118636492Y-103824299D01*
X118570304Y-103859678D01*
X118512289Y-103907289D01*
X118464678Y-103965304D01*
X118429299Y-104031492D01*
X118407513Y-104103311D01*
X118400748Y-104172000D01*
X117293446Y-104172000D01*
X117161620Y-104040174D01*
X116974413Y-103915087D01*
X116766401Y-103828925D01*
X116545576Y-103785000D01*
X116320424Y-103785000D01*
X116099599Y-103828925D01*
X115891587Y-103915087D01*
X115704380Y-104040174D01*
X115572554Y-104172000D01*
X114311129Y-104172000D01*
X114274000Y-104168343D01*
X114184807Y-104177128D01*
X114125798Y-104182940D01*
X113983292Y-104226168D01*
X113851957Y-104296368D01*
X113736841Y-104390841D01*
X113713166Y-104419689D01*
X113535855Y-104597000D01*
X109889191Y-104597000D01*
X109864589Y-104576810D01*
X109755179Y-104518329D01*
X109636462Y-104482317D01*
X109513000Y-104470157D01*
X104513000Y-104470157D01*
X104389538Y-104482317D01*
X104270821Y-104518329D01*
X104161411Y-104576810D01*
X104065512Y-104655512D01*
X103986810Y-104751411D01*
X103928329Y-104860821D01*
X103892317Y-104979538D01*
X103880157Y-105103000D01*
X101640000Y-105103000D01*
X101640000Y-96311686D01*
X101812238Y-96569458D01*
X102296542Y-97053762D01*
X102866023Y-97434278D01*
X103498796Y-97696381D01*
X103869694Y-97770157D01*
X103513000Y-97770157D01*
X103389538Y-97782317D01*
X103270821Y-97818329D01*
X103161411Y-97876810D01*
X103065512Y-97955512D01*
X102986810Y-98051411D01*
X102928329Y-98160821D01*
X102892317Y-98279538D01*
X102880157Y-98403000D01*
X102880157Y-99503000D01*
X102892317Y-99626462D01*
X102928329Y-99745179D01*
X102986810Y-99854589D01*
X103065512Y-99950488D01*
X103161411Y-100029190D01*
X103270821Y-100087671D01*
X103389538Y-100123683D01*
X103513000Y-100135843D01*
X103597823Y-100135843D01*
X103388722Y-100344943D01*
X103364648Y-100364701D01*
X103344890Y-100388776D01*
X103344887Y-100388779D01*
X103285794Y-100460784D01*
X103227201Y-100570403D01*
X103191120Y-100689347D01*
X103178938Y-100813044D01*
X103181991Y-100844044D01*
X103181990Y-102871999D01*
X103178938Y-102902990D01*
X103181990Y-102933980D01*
X103181990Y-102933987D01*
X103191120Y-103026687D01*
X103227201Y-103145631D01*
X103285794Y-103255250D01*
X103364647Y-103351333D01*
X103388727Y-103371095D01*
X103794899Y-103777268D01*
X103814657Y-103801343D01*
X103838732Y-103821101D01*
X103838734Y-103821103D01*
X103885738Y-103859678D01*
X103910739Y-103880196D01*
X103961568Y-103907365D01*
X103986810Y-103954589D01*
X104065512Y-104050488D01*
X104161411Y-104129190D01*
X104270821Y-104187671D01*
X104389538Y-104223683D01*
X104513000Y-104235843D01*
X109513000Y-104235843D01*
X109636462Y-104223683D01*
X109755179Y-104187671D01*
X109864589Y-104129190D01*
X109960488Y-104050488D01*
X110039190Y-103954589D01*
X110097671Y-103845179D01*
X110133683Y-103726462D01*
X110145843Y-103603000D01*
X110145843Y-103103000D01*
X110133683Y-102979538D01*
X110097671Y-102860821D01*
X110039190Y-102751411D01*
X109960488Y-102655512D01*
X109864589Y-102576810D01*
X109755179Y-102518329D01*
X109636462Y-102482317D01*
X109513000Y-102470157D01*
X104513000Y-102470157D01*
X104443990Y-102476954D01*
X104443990Y-102235711D01*
X106790750Y-102234000D01*
X106886000Y-102138750D01*
X106886000Y-101480000D01*
X107140000Y-101480000D01*
X107140000Y-102138750D01*
X107235250Y-102234000D01*
X109763000Y-102235843D01*
X109837689Y-102228487D01*
X109909508Y-102206701D01*
X109975696Y-102171322D01*
X110033711Y-102123711D01*
X110081322Y-102065696D01*
X110116701Y-101999508D01*
X110138487Y-101927689D01*
X110145843Y-101853000D01*
X110144000Y-101575250D01*
X110048750Y-101480000D01*
X107140000Y-101480000D01*
X106886000Y-101480000D01*
X106866000Y-101480000D01*
X106866000Y-101226000D01*
X106886000Y-101226000D01*
X106886000Y-101206000D01*
X107140000Y-101206000D01*
X107140000Y-101226000D01*
X110048750Y-101226000D01*
X110144000Y-101130750D01*
X110145843Y-100853000D01*
X110143973Y-100834010D01*
X114650000Y-100834010D01*
X114680990Y-100837062D01*
X114711980Y-100834010D01*
X114711988Y-100834010D01*
X114804688Y-100824880D01*
X114923632Y-100788799D01*
X115033251Y-100730206D01*
X115129333Y-100651353D01*
X115149095Y-100627273D01*
X115704369Y-100072000D01*
X116203125Y-100072000D01*
X116222854Y-100137037D01*
X116280757Y-100245366D01*
X116358682Y-100340318D01*
X116414501Y-100386127D01*
X116414501Y-100685000D01*
X116320424Y-100685000D01*
X116099599Y-100728925D01*
X115891587Y-100815087D01*
X115704380Y-100940174D01*
X115545174Y-101099380D01*
X115420087Y-101286587D01*
X115333925Y-101494599D01*
X115290000Y-101715424D01*
X115290000Y-101940576D01*
X115333925Y-102161401D01*
X115420087Y-102369413D01*
X115545174Y-102556620D01*
X115704380Y-102715826D01*
X115891587Y-102840913D01*
X116099599Y-102927075D01*
X116320424Y-102971000D01*
X116545576Y-102971000D01*
X116766401Y-102927075D01*
X116974413Y-102840913D01*
X117161620Y-102715826D01*
X117220296Y-102657150D01*
X118883455Y-102657150D01*
X118964796Y-102826131D01*
X119170439Y-102917803D01*
X119390016Y-102967595D01*
X119615087Y-102973593D01*
X119837004Y-102935566D01*
X120047238Y-102854976D01*
X120101204Y-102826131D01*
X120182545Y-102657150D01*
X119533000Y-102007605D01*
X118883455Y-102657150D01*
X117220296Y-102657150D01*
X117320826Y-102556620D01*
X117445913Y-102369413D01*
X117532075Y-102161401D01*
X117576000Y-101940576D01*
X117576000Y-101910087D01*
X118387407Y-101910087D01*
X118425434Y-102132004D01*
X118506024Y-102342238D01*
X118534869Y-102396204D01*
X118703850Y-102477545D01*
X119353395Y-101828000D01*
X119712605Y-101828000D01*
X120362150Y-102477545D01*
X120531131Y-102396204D01*
X120622803Y-102190561D01*
X120672595Y-101970984D01*
X120678593Y-101745913D01*
X120640566Y-101523996D01*
X120559976Y-101313762D01*
X120531131Y-101259796D01*
X120362150Y-101178455D01*
X119712605Y-101828000D01*
X119353395Y-101828000D01*
X118703850Y-101178455D01*
X118534869Y-101259796D01*
X118443197Y-101465439D01*
X118393405Y-101685016D01*
X118387407Y-101910087D01*
X117576000Y-101910087D01*
X117576000Y-101715424D01*
X117551714Y-101593328D01*
X117551985Y-101592998D01*
X117572696Y-101567761D01*
X117631289Y-101458142D01*
X117667370Y-101339198D01*
X117669875Y-101313762D01*
X117676500Y-101246498D01*
X117676500Y-101246491D01*
X117679552Y-101215500D01*
X117676500Y-101184510D01*
X117676500Y-100998850D01*
X118883455Y-100998850D01*
X119533000Y-101648395D01*
X120182545Y-100998850D01*
X120101204Y-100829869D01*
X119895561Y-100738197D01*
X119675984Y-100688405D01*
X119450913Y-100682407D01*
X119228996Y-100720434D01*
X119018762Y-100801024D01*
X118964796Y-100829869D01*
X118883455Y-100998850D01*
X117676500Y-100998850D01*
X117676500Y-100386127D01*
X117732318Y-100340318D01*
X117810243Y-100245366D01*
X117866027Y-100141000D01*
X118050157Y-100141000D01*
X118057513Y-100215689D01*
X118079299Y-100287508D01*
X118114678Y-100353696D01*
X118162289Y-100411711D01*
X118220304Y-100459322D01*
X118286492Y-100494701D01*
X118358311Y-100516487D01*
X118433000Y-100523843D01*
X118698250Y-100522000D01*
X118793500Y-100426750D01*
X118793500Y-99568000D01*
X119047500Y-99568000D01*
X119047500Y-100426750D01*
X119142750Y-100522000D01*
X119408000Y-100523843D01*
X119482689Y-100516487D01*
X119554508Y-100494701D01*
X119620696Y-100459322D01*
X119678711Y-100411711D01*
X119726322Y-100353696D01*
X119761701Y-100287508D01*
X119783487Y-100215689D01*
X119790843Y-100141000D01*
X119789000Y-99663250D01*
X119693750Y-99568000D01*
X119047500Y-99568000D01*
X118793500Y-99568000D01*
X118147250Y-99568000D01*
X118052000Y-99663250D01*
X118050157Y-100141000D01*
X117866027Y-100141000D01*
X117868146Y-100137037D01*
X117903803Y-100019492D01*
X117915843Y-99897250D01*
X117915843Y-98984750D01*
X117903803Y-98862508D01*
X117868146Y-98744963D01*
X117866028Y-98741000D01*
X118050157Y-98741000D01*
X118052000Y-99218750D01*
X118147250Y-99314000D01*
X118793500Y-99314000D01*
X118793500Y-98455250D01*
X119047500Y-98455250D01*
X119047500Y-99314000D01*
X119693750Y-99314000D01*
X119789000Y-99218750D01*
X119790843Y-98741000D01*
X119783487Y-98666311D01*
X119761701Y-98594492D01*
X119726322Y-98528304D01*
X119678711Y-98470289D01*
X119620696Y-98422678D01*
X119554508Y-98387299D01*
X119482689Y-98365513D01*
X119408000Y-98358157D01*
X119142750Y-98360000D01*
X119047500Y-98455250D01*
X118793500Y-98455250D01*
X118698250Y-98360000D01*
X118433000Y-98358157D01*
X118358311Y-98365513D01*
X118286492Y-98387299D01*
X118220304Y-98422678D01*
X118162289Y-98470289D01*
X118114678Y-98528304D01*
X118079299Y-98594492D01*
X118057513Y-98666311D01*
X118050157Y-98741000D01*
X117866028Y-98741000D01*
X117810243Y-98636634D01*
X117732318Y-98541682D01*
X117637366Y-98463757D01*
X117529037Y-98405854D01*
X117411492Y-98370197D01*
X117289250Y-98358157D01*
X116801750Y-98358157D01*
X116679508Y-98370197D01*
X116561963Y-98405854D01*
X116453634Y-98463757D01*
X116358682Y-98541682D01*
X116280757Y-98636634D01*
X116222854Y-98744963D01*
X116203125Y-98810000D01*
X115473990Y-98810000D01*
X115443000Y-98806948D01*
X115412009Y-98810000D01*
X115412002Y-98810000D01*
X115319302Y-98819130D01*
X115200358Y-98855211D01*
X115090739Y-98913804D01*
X114994657Y-98992657D01*
X114974899Y-99016732D01*
X114419622Y-99572010D01*
X106639046Y-99572010D01*
X106645843Y-99503000D01*
X106645843Y-98403000D01*
X106633683Y-98279538D01*
X106597671Y-98160821D01*
X106539190Y-98051411D01*
X106460488Y-97955512D01*
X106364589Y-97876810D01*
X106255179Y-97818329D01*
X106136462Y-97782317D01*
X106013000Y-97770157D01*
X105156306Y-97770157D01*
X105527204Y-97696381D01*
X105793499Y-97586078D01*
X113900000Y-97586078D01*
X113900000Y-97739922D01*
X113930013Y-97890809D01*
X113988887Y-98032942D01*
X114074358Y-98160859D01*
X114183141Y-98269642D01*
X114311058Y-98355113D01*
X114453191Y-98413987D01*
X114604078Y-98444000D01*
X114757922Y-98444000D01*
X114908809Y-98413987D01*
X115050942Y-98355113D01*
X115178859Y-98269642D01*
X115287642Y-98160859D01*
X115373113Y-98032942D01*
X115431987Y-97890809D01*
X115462000Y-97739922D01*
X115462000Y-97586078D01*
X115431987Y-97435191D01*
X115373113Y-97293058D01*
X115287642Y-97165141D01*
X115178859Y-97056358D01*
X115050942Y-96970887D01*
X114908809Y-96912013D01*
X114757922Y-96882000D01*
X114604078Y-96882000D01*
X114453191Y-96912013D01*
X114311058Y-96970887D01*
X114183141Y-97056358D01*
X114074358Y-97165141D01*
X113988887Y-97293058D01*
X113930013Y-97435191D01*
X113900000Y-97586078D01*
X105793499Y-97586078D01*
X106159977Y-97434278D01*
X106729458Y-97053762D01*
X107213762Y-96569458D01*
X107594278Y-95999977D01*
X107856381Y-95367204D01*
X107990000Y-94695455D01*
X107990000Y-94649000D01*
X109272238Y-94649000D01*
X109272238Y-96711000D01*
X120343762Y-96711000D01*
X120343762Y-94649000D01*
X109272238Y-94649000D01*
X107990000Y-94649000D01*
X107990000Y-94010545D01*
X107856381Y-93338796D01*
X107594278Y-92706023D01*
X107213762Y-92136542D01*
X106729458Y-91652238D01*
X106471686Y-91480000D01*
X123054314Y-91480000D01*
X122796542Y-91652238D01*
G04 #@! TA.AperFunction,Conductor*
D18*
G36*
X122796542Y-91652238D02*
G01*
X122312238Y-92136542D01*
X121931722Y-92706023D01*
X121669619Y-93338796D01*
X121536000Y-94010545D01*
X121536000Y-94695455D01*
X121669619Y-95367204D01*
X121931722Y-95999977D01*
X122312238Y-96569458D01*
X122796542Y-97053762D01*
X123366023Y-97434278D01*
X123998796Y-97696381D01*
X124670545Y-97830000D01*
X125355455Y-97830000D01*
X126027204Y-97696381D01*
X126659977Y-97434278D01*
X127229458Y-97053762D01*
X127713762Y-96569458D01*
X127886000Y-96311686D01*
X127886000Y-110394314D01*
X127713762Y-110136542D01*
X127229458Y-109652238D01*
X126659977Y-109271722D01*
X126027204Y-109009619D01*
X125355455Y-108876000D01*
X124670545Y-108876000D01*
X123998796Y-109009619D01*
X123366023Y-109271722D01*
X122796542Y-109652238D01*
X122312238Y-110136542D01*
X121931722Y-110706023D01*
X121669619Y-111338796D01*
X121536000Y-112010545D01*
X121536000Y-112695455D01*
X121669619Y-113367204D01*
X121931722Y-113999977D01*
X122312238Y-114569458D01*
X122796542Y-115053762D01*
X123054314Y-115226000D01*
X106471686Y-115226000D01*
X106729458Y-115053762D01*
X107213762Y-114569458D01*
X107594278Y-113999977D01*
X107856381Y-113367204D01*
X107990000Y-112695455D01*
X107990000Y-112010545D01*
X107856381Y-111338796D01*
X107594278Y-110706023D01*
X107213762Y-110136542D01*
X106729458Y-109652238D01*
X106159977Y-109271722D01*
X105527204Y-109009619D01*
X105156306Y-108935843D01*
X106013000Y-108935843D01*
X106136462Y-108923683D01*
X106255179Y-108887671D01*
X106364589Y-108829190D01*
X106460488Y-108750488D01*
X106539190Y-108654589D01*
X106597671Y-108545179D01*
X106633683Y-108426462D01*
X106645843Y-108303000D01*
X106645843Y-107203000D01*
X106633683Y-107079538D01*
X106597671Y-106960821D01*
X106539190Y-106851411D01*
X106478944Y-106778000D01*
X123930157Y-106778000D01*
X123937513Y-106852689D01*
X123959299Y-106924508D01*
X123994678Y-106990696D01*
X124042289Y-107048711D01*
X124100304Y-107096322D01*
X124166492Y-107131701D01*
X124238311Y-107153487D01*
X124313000Y-107160843D01*
X124790750Y-107159000D01*
X124886000Y-107063750D01*
X124886000Y-106417500D01*
X125140000Y-106417500D01*
X125140000Y-107063750D01*
X125235250Y-107159000D01*
X125713000Y-107160843D01*
X125787689Y-107153487D01*
X125859508Y-107131701D01*
X125925696Y-107096322D01*
X125983711Y-107048711D01*
X126031322Y-106990696D01*
X126066701Y-106924508D01*
X126088487Y-106852689D01*
X126095843Y-106778000D01*
X126094000Y-106512750D01*
X125998750Y-106417500D01*
X125140000Y-106417500D01*
X124886000Y-106417500D01*
X124027250Y-106417500D01*
X123932000Y-106512750D01*
X123930157Y-106778000D01*
X106478944Y-106778000D01*
X106460488Y-106755512D01*
X106364589Y-106676810D01*
X106255179Y-106618329D01*
X106136462Y-106582317D01*
X106013000Y-106570157D01*
X103513000Y-106570157D01*
X103389538Y-106582317D01*
X103270821Y-106618329D01*
X103161411Y-106676810D01*
X103065512Y-106755512D01*
X102986810Y-106851411D01*
X102928329Y-106960821D01*
X102892317Y-107079538D01*
X102880157Y-107203000D01*
X102880157Y-108303000D01*
X102892317Y-108426462D01*
X102928329Y-108545179D01*
X102986810Y-108654589D01*
X103065512Y-108750488D01*
X103161411Y-108829190D01*
X103270821Y-108887671D01*
X103389538Y-108923683D01*
X103513000Y-108935843D01*
X103869694Y-108935843D01*
X103498796Y-109009619D01*
X102866023Y-109271722D01*
X102296542Y-109652238D01*
X101812238Y-110136542D01*
X101640000Y-110394314D01*
X101640000Y-105103000D01*
X103880157Y-105103000D01*
X103880157Y-105603000D01*
X103892317Y-105726462D01*
X103928329Y-105845179D01*
X103986810Y-105954589D01*
X104065512Y-106050488D01*
X104161411Y-106129190D01*
X104270821Y-106187671D01*
X104389538Y-106223683D01*
X104513000Y-106235843D01*
X109513000Y-106235843D01*
X109636462Y-106223683D01*
X109755179Y-106187671D01*
X109864589Y-106129190D01*
X109889191Y-106109000D01*
X113811871Y-106109000D01*
X113849000Y-106112657D01*
X113886129Y-106109000D01*
X113997202Y-106098060D01*
X114139708Y-106054832D01*
X114271043Y-105984632D01*
X114386159Y-105890159D01*
X114409837Y-105861307D01*
X114587144Y-105684000D01*
X115572554Y-105684000D01*
X115704380Y-105815826D01*
X115891587Y-105940913D01*
X116099599Y-106027075D01*
X116320424Y-106071000D01*
X116545576Y-106071000D01*
X116766401Y-106027075D01*
X116974413Y-105940913D01*
X117161620Y-105815826D01*
X117293446Y-105684000D01*
X118400748Y-105684000D01*
X118407513Y-105752689D01*
X118429299Y-105824508D01*
X118464678Y-105890696D01*
X118512289Y-105948711D01*
X118570304Y-105996322D01*
X118636492Y-106031701D01*
X118708311Y-106053487D01*
X118783000Y-106060843D01*
X120283000Y-106060843D01*
X120357689Y-106053487D01*
X120429508Y-106031701D01*
X120495696Y-105996322D01*
X120553711Y-105948711D01*
X120601322Y-105890696D01*
X120636701Y-105824508D01*
X120643225Y-105803000D01*
X123930157Y-105803000D01*
X123932000Y-106068250D01*
X124027250Y-106163500D01*
X124886000Y-106163500D01*
X124886000Y-105517250D01*
X125140000Y-105517250D01*
X125140000Y-106163500D01*
X125998750Y-106163500D01*
X126094000Y-106068250D01*
X126095843Y-105803000D01*
X126088487Y-105728311D01*
X126066701Y-105656492D01*
X126031322Y-105590304D01*
X125983711Y-105532289D01*
X125925696Y-105484678D01*
X125859508Y-105449299D01*
X125787689Y-105427513D01*
X125713000Y-105420157D01*
X125235250Y-105422000D01*
X125140000Y-105517250D01*
X124886000Y-105517250D01*
X124790750Y-105422000D01*
X124313000Y-105420157D01*
X124238311Y-105427513D01*
X124166492Y-105449299D01*
X124100304Y-105484678D01*
X124042289Y-105532289D01*
X123994678Y-105590304D01*
X123959299Y-105656492D01*
X123937513Y-105728311D01*
X123930157Y-105803000D01*
X120643225Y-105803000D01*
X120658487Y-105752689D01*
X120665252Y-105684000D01*
X121221871Y-105684000D01*
X121259000Y-105687657D01*
X121296129Y-105684000D01*
X121407202Y-105673060D01*
X121549708Y-105629832D01*
X121681043Y-105559632D01*
X121796159Y-105465159D01*
X121819838Y-105436306D01*
X122555312Y-104700832D01*
X122584159Y-104677159D01*
X122678632Y-104562043D01*
X122748832Y-104430708D01*
X122792060Y-104288202D01*
X122798415Y-104223683D01*
X122806657Y-104140001D01*
X122803000Y-104102872D01*
X122803000Y-101592998D01*
X123885157Y-101592998D01*
X123885157Y-102118002D01*
X123897317Y-102241463D01*
X123933329Y-102360180D01*
X123991810Y-102469590D01*
X124070512Y-102565488D01*
X124166410Y-102644190D01*
X124275820Y-102702671D01*
X124337000Y-102721230D01*
X124337001Y-103586776D01*
X124316963Y-103592854D01*
X124208634Y-103650757D01*
X124113682Y-103728682D01*
X124035757Y-103823634D01*
X123977854Y-103931963D01*
X123942197Y-104049508D01*
X123930157Y-104171750D01*
X123930157Y-104659250D01*
X123942197Y-104781492D01*
X123977854Y-104899037D01*
X124035757Y-105007366D01*
X124113682Y-105102318D01*
X124208634Y-105180243D01*
X124316963Y-105238146D01*
X124434508Y-105273803D01*
X124556750Y-105285843D01*
X125469250Y-105285843D01*
X125591492Y-105273803D01*
X125709037Y-105238146D01*
X125817366Y-105180243D01*
X125912318Y-105102318D01*
X125990243Y-105007366D01*
X126048146Y-104899037D01*
X126083803Y-104781492D01*
X126095843Y-104659250D01*
X126095843Y-104171750D01*
X126083803Y-104049508D01*
X126048146Y-103931963D01*
X125990243Y-103823634D01*
X125912318Y-103728682D01*
X125817366Y-103650757D01*
X125709037Y-103592854D01*
X125599000Y-103559475D01*
X125599000Y-102721230D01*
X125660180Y-102702671D01*
X125769590Y-102644190D01*
X125865488Y-102565488D01*
X125944190Y-102469590D01*
X126002671Y-102360180D01*
X126038683Y-102241463D01*
X126050843Y-102118002D01*
X126050843Y-101592998D01*
X126038683Y-101469537D01*
X126002671Y-101350820D01*
X125944190Y-101241410D01*
X125865488Y-101145512D01*
X125769590Y-101066810D01*
X125660180Y-101008329D01*
X125541463Y-100972317D01*
X125418002Y-100960157D01*
X124517998Y-100960157D01*
X124394537Y-100972317D01*
X124275820Y-101008329D01*
X124166410Y-101066810D01*
X124070512Y-101145512D01*
X123991810Y-101241410D01*
X123933329Y-101350820D01*
X123897317Y-101469537D01*
X123885157Y-101592998D01*
X122803000Y-101592998D01*
X122803000Y-101151144D01*
X123167645Y-100786500D01*
X124126577Y-100786500D01*
X124166410Y-100819190D01*
X124275820Y-100877671D01*
X124394537Y-100913683D01*
X124517998Y-100925843D01*
X125418002Y-100925843D01*
X125541463Y-100913683D01*
X125660180Y-100877671D01*
X125769590Y-100819190D01*
X125865488Y-100740488D01*
X125944190Y-100644590D01*
X126002671Y-100535180D01*
X126038683Y-100416463D01*
X126050843Y-100293002D01*
X126050843Y-99767998D01*
X126038683Y-99644537D01*
X126002671Y-99525820D01*
X125944190Y-99416410D01*
X125865488Y-99320512D01*
X125769590Y-99241810D01*
X125660180Y-99183329D01*
X125541463Y-99147317D01*
X125418002Y-99135157D01*
X124517998Y-99135157D01*
X124394537Y-99147317D01*
X124275820Y-99183329D01*
X124166410Y-99241810D01*
X124126577Y-99274500D01*
X122891628Y-99274500D01*
X122854499Y-99270843D01*
X122706297Y-99285440D01*
X122663069Y-99298553D01*
X122563792Y-99328668D01*
X122432457Y-99398868D01*
X122317341Y-99493341D01*
X122293666Y-99522189D01*
X121538689Y-100277167D01*
X121509842Y-100300841D01*
X121415369Y-100415957D01*
X121370822Y-100499299D01*
X121345169Y-100547292D01*
X121301940Y-100689799D01*
X121287343Y-100838000D01*
X121291001Y-100875139D01*
X121291000Y-103826855D01*
X120945856Y-104172000D01*
X120665252Y-104172000D01*
X120658487Y-104103311D01*
X120636701Y-104031492D01*
X120601322Y-103965304D01*
X120553711Y-103907289D01*
X120495696Y-103859678D01*
X120429508Y-103824299D01*
X120357689Y-103802513D01*
X120283000Y-103795157D01*
X118783000Y-103795157D01*
X118708311Y-103802513D01*
X118636492Y-103824299D01*
X118570304Y-103859678D01*
X118512289Y-103907289D01*
X118464678Y-103965304D01*
X118429299Y-104031492D01*
X118407513Y-104103311D01*
X118400748Y-104172000D01*
X117293446Y-104172000D01*
X117161620Y-104040174D01*
X116974413Y-103915087D01*
X116766401Y-103828925D01*
X116545576Y-103785000D01*
X116320424Y-103785000D01*
X116099599Y-103828925D01*
X115891587Y-103915087D01*
X115704380Y-104040174D01*
X115572554Y-104172000D01*
X114311129Y-104172000D01*
X114274000Y-104168343D01*
X114184807Y-104177128D01*
X114125798Y-104182940D01*
X113983292Y-104226168D01*
X113851957Y-104296368D01*
X113736841Y-104390841D01*
X113713166Y-104419689D01*
X113535855Y-104597000D01*
X109889191Y-104597000D01*
X109864589Y-104576810D01*
X109755179Y-104518329D01*
X109636462Y-104482317D01*
X109513000Y-104470157D01*
X104513000Y-104470157D01*
X104389538Y-104482317D01*
X104270821Y-104518329D01*
X104161411Y-104576810D01*
X104065512Y-104655512D01*
X103986810Y-104751411D01*
X103928329Y-104860821D01*
X103892317Y-104979538D01*
X103880157Y-105103000D01*
X101640000Y-105103000D01*
X101640000Y-96311686D01*
X101812238Y-96569458D01*
X102296542Y-97053762D01*
X102866023Y-97434278D01*
X103498796Y-97696381D01*
X103869694Y-97770157D01*
X103513000Y-97770157D01*
X103389538Y-97782317D01*
X103270821Y-97818329D01*
X103161411Y-97876810D01*
X103065512Y-97955512D01*
X102986810Y-98051411D01*
X102928329Y-98160821D01*
X102892317Y-98279538D01*
X102880157Y-98403000D01*
X102880157Y-99503000D01*
X102892317Y-99626462D01*
X102928329Y-99745179D01*
X102986810Y-99854589D01*
X103065512Y-99950488D01*
X103161411Y-100029190D01*
X103270821Y-100087671D01*
X103389538Y-100123683D01*
X103513000Y-100135843D01*
X103597823Y-100135843D01*
X103388722Y-100344943D01*
X103364648Y-100364701D01*
X103344890Y-100388776D01*
X103344887Y-100388779D01*
X103285794Y-100460784D01*
X103227201Y-100570403D01*
X103191120Y-100689347D01*
X103178938Y-100813044D01*
X103181991Y-100844044D01*
X103181990Y-102871999D01*
X103178938Y-102902990D01*
X103181990Y-102933980D01*
X103181990Y-102933987D01*
X103191120Y-103026687D01*
X103227201Y-103145631D01*
X103285794Y-103255250D01*
X103364647Y-103351333D01*
X103388727Y-103371095D01*
X103794899Y-103777268D01*
X103814657Y-103801343D01*
X103838732Y-103821101D01*
X103838734Y-103821103D01*
X103885738Y-103859678D01*
X103910739Y-103880196D01*
X103961568Y-103907365D01*
X103986810Y-103954589D01*
X104065512Y-104050488D01*
X104161411Y-104129190D01*
X104270821Y-104187671D01*
X104389538Y-104223683D01*
X104513000Y-104235843D01*
X109513000Y-104235843D01*
X109636462Y-104223683D01*
X109755179Y-104187671D01*
X109864589Y-104129190D01*
X109960488Y-104050488D01*
X110039190Y-103954589D01*
X110097671Y-103845179D01*
X110133683Y-103726462D01*
X110145843Y-103603000D01*
X110145843Y-103103000D01*
X110133683Y-102979538D01*
X110097671Y-102860821D01*
X110039190Y-102751411D01*
X109960488Y-102655512D01*
X109864589Y-102576810D01*
X109755179Y-102518329D01*
X109636462Y-102482317D01*
X109513000Y-102470157D01*
X104513000Y-102470157D01*
X104443990Y-102476954D01*
X104443990Y-102235711D01*
X106790750Y-102234000D01*
X106886000Y-102138750D01*
X106886000Y-101480000D01*
X107140000Y-101480000D01*
X107140000Y-102138750D01*
X107235250Y-102234000D01*
X109763000Y-102235843D01*
X109837689Y-102228487D01*
X109909508Y-102206701D01*
X109975696Y-102171322D01*
X110033711Y-102123711D01*
X110081322Y-102065696D01*
X110116701Y-101999508D01*
X110138487Y-101927689D01*
X110145843Y-101853000D01*
X110144000Y-101575250D01*
X110048750Y-101480000D01*
X107140000Y-101480000D01*
X106886000Y-101480000D01*
X106866000Y-101480000D01*
X106866000Y-101226000D01*
X106886000Y-101226000D01*
X106886000Y-101206000D01*
X107140000Y-101206000D01*
X107140000Y-101226000D01*
X110048750Y-101226000D01*
X110144000Y-101130750D01*
X110145843Y-100853000D01*
X110143973Y-100834010D01*
X114650000Y-100834010D01*
X114680990Y-100837062D01*
X114711980Y-100834010D01*
X114711988Y-100834010D01*
X114804688Y-100824880D01*
X114923632Y-100788799D01*
X115033251Y-100730206D01*
X115129333Y-100651353D01*
X115149095Y-100627273D01*
X115704369Y-100072000D01*
X116203125Y-100072000D01*
X116222854Y-100137037D01*
X116280757Y-100245366D01*
X116358682Y-100340318D01*
X116414501Y-100386127D01*
X116414501Y-100685000D01*
X116320424Y-100685000D01*
X116099599Y-100728925D01*
X115891587Y-100815087D01*
X115704380Y-100940174D01*
X115545174Y-101099380D01*
X115420087Y-101286587D01*
X115333925Y-101494599D01*
X115290000Y-101715424D01*
X115290000Y-101940576D01*
X115333925Y-102161401D01*
X115420087Y-102369413D01*
X115545174Y-102556620D01*
X115704380Y-102715826D01*
X115891587Y-102840913D01*
X116099599Y-102927075D01*
X116320424Y-102971000D01*
X116545576Y-102971000D01*
X116766401Y-102927075D01*
X116974413Y-102840913D01*
X117161620Y-102715826D01*
X117220296Y-102657150D01*
X118883455Y-102657150D01*
X118964796Y-102826131D01*
X119170439Y-102917803D01*
X119390016Y-102967595D01*
X119615087Y-102973593D01*
X119837004Y-102935566D01*
X120047238Y-102854976D01*
X120101204Y-102826131D01*
X120182545Y-102657150D01*
X119533000Y-102007605D01*
X118883455Y-102657150D01*
X117220296Y-102657150D01*
X117320826Y-102556620D01*
X117445913Y-102369413D01*
X117532075Y-102161401D01*
X117576000Y-101940576D01*
X117576000Y-101910087D01*
X118387407Y-101910087D01*
X118425434Y-102132004D01*
X118506024Y-102342238D01*
X118534869Y-102396204D01*
X118703850Y-102477545D01*
X119353395Y-101828000D01*
X119712605Y-101828000D01*
X120362150Y-102477545D01*
X120531131Y-102396204D01*
X120622803Y-102190561D01*
X120672595Y-101970984D01*
X120678593Y-101745913D01*
X120640566Y-101523996D01*
X120559976Y-101313762D01*
X120531131Y-101259796D01*
X120362150Y-101178455D01*
X119712605Y-101828000D01*
X119353395Y-101828000D01*
X118703850Y-101178455D01*
X118534869Y-101259796D01*
X118443197Y-101465439D01*
X118393405Y-101685016D01*
X118387407Y-101910087D01*
X117576000Y-101910087D01*
X117576000Y-101715424D01*
X117551714Y-101593328D01*
X117551985Y-101592998D01*
X117572696Y-101567761D01*
X117631289Y-101458142D01*
X117667370Y-101339198D01*
X117669875Y-101313762D01*
X117676500Y-101246498D01*
X117676500Y-101246491D01*
X117679552Y-101215500D01*
X117676500Y-101184510D01*
X117676500Y-100998850D01*
X118883455Y-100998850D01*
X119533000Y-101648395D01*
X120182545Y-100998850D01*
X120101204Y-100829869D01*
X119895561Y-100738197D01*
X119675984Y-100688405D01*
X119450913Y-100682407D01*
X119228996Y-100720434D01*
X119018762Y-100801024D01*
X118964796Y-100829869D01*
X118883455Y-100998850D01*
X117676500Y-100998850D01*
X117676500Y-100386127D01*
X117732318Y-100340318D01*
X117810243Y-100245366D01*
X117866027Y-100141000D01*
X118050157Y-100141000D01*
X118057513Y-100215689D01*
X118079299Y-100287508D01*
X118114678Y-100353696D01*
X118162289Y-100411711D01*
X118220304Y-100459322D01*
X118286492Y-100494701D01*
X118358311Y-100516487D01*
X118433000Y-100523843D01*
X118698250Y-100522000D01*
X118793500Y-100426750D01*
X118793500Y-99568000D01*
X119047500Y-99568000D01*
X119047500Y-100426750D01*
X119142750Y-100522000D01*
X119408000Y-100523843D01*
X119482689Y-100516487D01*
X119554508Y-100494701D01*
X119620696Y-100459322D01*
X119678711Y-100411711D01*
X119726322Y-100353696D01*
X119761701Y-100287508D01*
X119783487Y-100215689D01*
X119790843Y-100141000D01*
X119789000Y-99663250D01*
X119693750Y-99568000D01*
X119047500Y-99568000D01*
X118793500Y-99568000D01*
X118147250Y-99568000D01*
X118052000Y-99663250D01*
X118050157Y-100141000D01*
X117866027Y-100141000D01*
X117868146Y-100137037D01*
X117903803Y-100019492D01*
X117915843Y-99897250D01*
X117915843Y-98984750D01*
X117903803Y-98862508D01*
X117868146Y-98744963D01*
X117866028Y-98741000D01*
X118050157Y-98741000D01*
X118052000Y-99218750D01*
X118147250Y-99314000D01*
X118793500Y-99314000D01*
X118793500Y-98455250D01*
X119047500Y-98455250D01*
X119047500Y-99314000D01*
X119693750Y-99314000D01*
X119789000Y-99218750D01*
X119790843Y-98741000D01*
X119783487Y-98666311D01*
X119761701Y-98594492D01*
X119726322Y-98528304D01*
X119678711Y-98470289D01*
X119620696Y-98422678D01*
X119554508Y-98387299D01*
X119482689Y-98365513D01*
X119408000Y-98358157D01*
X119142750Y-98360000D01*
X119047500Y-98455250D01*
X118793500Y-98455250D01*
X118698250Y-98360000D01*
X118433000Y-98358157D01*
X118358311Y-98365513D01*
X118286492Y-98387299D01*
X118220304Y-98422678D01*
X118162289Y-98470289D01*
X118114678Y-98528304D01*
X118079299Y-98594492D01*
X118057513Y-98666311D01*
X118050157Y-98741000D01*
X117866028Y-98741000D01*
X117810243Y-98636634D01*
X117732318Y-98541682D01*
X117637366Y-98463757D01*
X117529037Y-98405854D01*
X117411492Y-98370197D01*
X117289250Y-98358157D01*
X116801750Y-98358157D01*
X116679508Y-98370197D01*
X116561963Y-98405854D01*
X116453634Y-98463757D01*
X116358682Y-98541682D01*
X116280757Y-98636634D01*
X116222854Y-98744963D01*
X116203125Y-98810000D01*
X115473990Y-98810000D01*
X115443000Y-98806948D01*
X115412009Y-98810000D01*
X115412002Y-98810000D01*
X115319302Y-98819130D01*
X115200358Y-98855211D01*
X115090739Y-98913804D01*
X114994657Y-98992657D01*
X114974899Y-99016732D01*
X114419622Y-99572010D01*
X106639046Y-99572010D01*
X106645843Y-99503000D01*
X106645843Y-98403000D01*
X106633683Y-98279538D01*
X106597671Y-98160821D01*
X106539190Y-98051411D01*
X106460488Y-97955512D01*
X106364589Y-97876810D01*
X106255179Y-97818329D01*
X106136462Y-97782317D01*
X106013000Y-97770157D01*
X105156306Y-97770157D01*
X105527204Y-97696381D01*
X105793499Y-97586078D01*
X113900000Y-97586078D01*
X113900000Y-97739922D01*
X113930013Y-97890809D01*
X113988887Y-98032942D01*
X114074358Y-98160859D01*
X114183141Y-98269642D01*
X114311058Y-98355113D01*
X114453191Y-98413987D01*
X114604078Y-98444000D01*
X114757922Y-98444000D01*
X114908809Y-98413987D01*
X115050942Y-98355113D01*
X115178859Y-98269642D01*
X115287642Y-98160859D01*
X115373113Y-98032942D01*
X115431987Y-97890809D01*
X115462000Y-97739922D01*
X115462000Y-97586078D01*
X115431987Y-97435191D01*
X115373113Y-97293058D01*
X115287642Y-97165141D01*
X115178859Y-97056358D01*
X115050942Y-96970887D01*
X114908809Y-96912013D01*
X114757922Y-96882000D01*
X114604078Y-96882000D01*
X114453191Y-96912013D01*
X114311058Y-96970887D01*
X114183141Y-97056358D01*
X114074358Y-97165141D01*
X113988887Y-97293058D01*
X113930013Y-97435191D01*
X113900000Y-97586078D01*
X105793499Y-97586078D01*
X106159977Y-97434278D01*
X106729458Y-97053762D01*
X107213762Y-96569458D01*
X107594278Y-95999977D01*
X107856381Y-95367204D01*
X107990000Y-94695455D01*
X107990000Y-94649000D01*
X109272238Y-94649000D01*
X109272238Y-96711000D01*
X120343762Y-96711000D01*
X120343762Y-94649000D01*
X109272238Y-94649000D01*
X107990000Y-94649000D01*
X107990000Y-94010545D01*
X107856381Y-93338796D01*
X107594278Y-92706023D01*
X107213762Y-92136542D01*
X106729458Y-91652238D01*
X106471686Y-91480000D01*
X123054314Y-91480000D01*
X122796542Y-91652238D01*
G37*
G04 #@! TD.AperFunction*
M02*
