G04 #@! TF.GenerationSoftware,KiCad,Pcbnew,5.1.9*
G04 #@! TF.CreationDate,2021-01-10T12:08:52+01:00*
G04 #@! TF.ProjectId,detectorHolder,64657465-6374-46f7-9248-6f6c6465722e,rev?*
G04 #@! TF.SameCoordinates,Original*
G04 #@! TF.FileFunction,Legend,Top*
G04 #@! TF.FilePolarity,Positive*
%FSLAX46Y46*%
G04 Gerber Fmt 4.6, Leading zero omitted, Abs format (unit mm)*
G04 Created by KiCad (PCBNEW 5.1.9) date 2021-01-10 12:08:52*
%MOMM*%
%LPD*%
G01*
G04 APERTURE LIST*
%ADD10C,0.080000*%
%ADD11C,0.150000*%
%ADD12C,0.120000*%
G04 APERTURE END LIST*
D10*
X107193666Y-113416666D02*
X107193666Y-112716666D01*
X107427000Y-113216666D01*
X107660333Y-112716666D01*
X107660333Y-113416666D01*
X108093666Y-113416666D02*
X108027000Y-113383333D01*
X107993666Y-113350000D01*
X107960333Y-113283333D01*
X107960333Y-113083333D01*
X107993666Y-113016666D01*
X108027000Y-112983333D01*
X108093666Y-112950000D01*
X108193666Y-112950000D01*
X108260333Y-112983333D01*
X108293666Y-113016666D01*
X108327000Y-113083333D01*
X108327000Y-113283333D01*
X108293666Y-113350000D01*
X108260333Y-113383333D01*
X108193666Y-113416666D01*
X108093666Y-113416666D01*
X108627000Y-113416666D02*
X108627000Y-112716666D01*
X109027000Y-113416666D01*
X109027000Y-112716666D01*
X109460333Y-113416666D02*
X109393666Y-113383333D01*
X109360333Y-113350000D01*
X109327000Y-113283333D01*
X109327000Y-113083333D01*
X109360333Y-113016666D01*
X109393666Y-112983333D01*
X109460333Y-112950000D01*
X109560333Y-112950000D01*
X109627000Y-112983333D01*
X109660333Y-113016666D01*
X109693666Y-113083333D01*
X109693666Y-113283333D01*
X109660333Y-113350000D01*
X109627000Y-113383333D01*
X109560333Y-113416666D01*
X109460333Y-113416666D01*
X109893666Y-112783333D02*
X110027000Y-112683333D01*
X110160333Y-112783333D01*
X110293666Y-112783333D02*
X110427000Y-112683333D01*
X110560333Y-112783333D01*
X111027000Y-113050000D02*
X111127000Y-113083333D01*
X111160333Y-113116666D01*
X111193666Y-113183333D01*
X111193666Y-113283333D01*
X111160333Y-113350000D01*
X111127000Y-113383333D01*
X111060333Y-113416666D01*
X110793666Y-113416666D01*
X110793666Y-112716666D01*
X111027000Y-112716666D01*
X111093666Y-112750000D01*
X111127000Y-112783333D01*
X111160333Y-112850000D01*
X111160333Y-112916666D01*
X111127000Y-112983333D01*
X111093666Y-113016666D01*
X111027000Y-113050000D01*
X110793666Y-113050000D01*
X111893666Y-113416666D02*
X111660333Y-113083333D01*
X111493666Y-113416666D02*
X111493666Y-112716666D01*
X111760333Y-112716666D01*
X111827000Y-112750000D01*
X111860333Y-112783333D01*
X111893666Y-112850000D01*
X111893666Y-112950000D01*
X111860333Y-113016666D01*
X111827000Y-113050000D01*
X111760333Y-113083333D01*
X111493666Y-113083333D01*
X112193666Y-113050000D02*
X112427000Y-113050000D01*
X112527000Y-113416666D02*
X112193666Y-113416666D01*
X112193666Y-112716666D01*
X112527000Y-112716666D01*
X112760333Y-112716666D02*
X112927000Y-113416666D01*
X113060333Y-112916666D01*
X113193666Y-113416666D01*
X113360333Y-112716666D01*
X114260333Y-113416666D02*
X114193666Y-113383333D01*
X114160333Y-113316666D01*
X114160333Y-112716666D01*
X114827000Y-113416666D02*
X114827000Y-113050000D01*
X114793666Y-112983333D01*
X114727000Y-112950000D01*
X114593666Y-112950000D01*
X114527000Y-112983333D01*
X114827000Y-113383333D02*
X114760333Y-113416666D01*
X114593666Y-113416666D01*
X114527000Y-113383333D01*
X114493666Y-113316666D01*
X114493666Y-113250000D01*
X114527000Y-113183333D01*
X114593666Y-113150000D01*
X114760333Y-113150000D01*
X114827000Y-113116666D01*
X115160333Y-113416666D02*
X115160333Y-112716666D01*
X115160333Y-112983333D02*
X115227000Y-112950000D01*
X115360333Y-112950000D01*
X115427000Y-112983333D01*
X115460333Y-113016666D01*
X115493666Y-113083333D01*
X115493666Y-113283333D01*
X115460333Y-113350000D01*
X115427000Y-113383333D01*
X115360333Y-113416666D01*
X115227000Y-113416666D01*
X115160333Y-113383333D01*
X115793666Y-113350000D02*
X115827000Y-113383333D01*
X115793666Y-113416666D01*
X115760333Y-113383333D01*
X115793666Y-113350000D01*
X115793666Y-113416666D01*
X116627000Y-112783333D02*
X116660333Y-112750000D01*
X116727000Y-112716666D01*
X116893666Y-112716666D01*
X116960333Y-112750000D01*
X116993666Y-112783333D01*
X117027000Y-112850000D01*
X117027000Y-112916666D01*
X116993666Y-113016666D01*
X116593666Y-113416666D01*
X117027000Y-113416666D01*
X117460333Y-112716666D02*
X117527000Y-112716666D01*
X117593666Y-112750000D01*
X117627000Y-112783333D01*
X117660333Y-112850000D01*
X117693666Y-112983333D01*
X117693666Y-113150000D01*
X117660333Y-113283333D01*
X117627000Y-113350000D01*
X117593666Y-113383333D01*
X117527000Y-113416666D01*
X117460333Y-113416666D01*
X117393666Y-113383333D01*
X117360333Y-113350000D01*
X117327000Y-113283333D01*
X117293666Y-113150000D01*
X117293666Y-112983333D01*
X117327000Y-112850000D01*
X117360333Y-112783333D01*
X117393666Y-112750000D01*
X117460333Y-112716666D01*
X117960333Y-112783333D02*
X117993666Y-112750000D01*
X118060333Y-112716666D01*
X118227000Y-112716666D01*
X118293666Y-112750000D01*
X118327000Y-112783333D01*
X118360333Y-112850000D01*
X118360333Y-112916666D01*
X118327000Y-113016666D01*
X117927000Y-113416666D01*
X118360333Y-113416666D01*
X119027000Y-113416666D02*
X118627000Y-113416666D01*
X118827000Y-113416666D02*
X118827000Y-112716666D01*
X118760333Y-112816666D01*
X118693666Y-112883333D01*
X118627000Y-112916666D01*
X119460333Y-112716666D02*
X119527000Y-112716666D01*
X119593666Y-112750000D01*
X119627000Y-112783333D01*
X119660333Y-112850000D01*
X119693666Y-112983333D01*
X119693666Y-113150000D01*
X119660333Y-113283333D01*
X119627000Y-113350000D01*
X119593666Y-113383333D01*
X119527000Y-113416666D01*
X119460333Y-113416666D01*
X119393666Y-113383333D01*
X119360333Y-113350000D01*
X119327000Y-113283333D01*
X119293666Y-113150000D01*
X119293666Y-112983333D01*
X119327000Y-112850000D01*
X119360333Y-112783333D01*
X119393666Y-112750000D01*
X119460333Y-112716666D01*
X120360333Y-113416666D02*
X119960333Y-113416666D01*
X120160333Y-113416666D02*
X120160333Y-112716666D01*
X120093666Y-112816666D01*
X120027000Y-112883333D01*
X119960333Y-112916666D01*
X121027000Y-113416666D02*
X120627000Y-113416666D01*
X120827000Y-113416666D02*
X120827000Y-112716666D01*
X120760333Y-112816666D01*
X120693666Y-112883333D01*
X120627000Y-112916666D01*
X121460333Y-112716666D02*
X121527000Y-112716666D01*
X121593666Y-112750000D01*
X121627000Y-112783333D01*
X121660333Y-112850000D01*
X121693666Y-112983333D01*
X121693666Y-113150000D01*
X121660333Y-113283333D01*
X121627000Y-113350000D01*
X121593666Y-113383333D01*
X121527000Y-113416666D01*
X121460333Y-113416666D01*
X121393666Y-113383333D01*
X121360333Y-113350000D01*
X121327000Y-113283333D01*
X121293666Y-113150000D01*
X121293666Y-112983333D01*
X121327000Y-112850000D01*
X121360333Y-112783333D01*
X121393666Y-112750000D01*
X121460333Y-112716666D01*
X107827000Y-114546666D02*
X107827000Y-114180000D01*
X107793666Y-114113333D01*
X107727000Y-114080000D01*
X107593666Y-114080000D01*
X107527000Y-114113333D01*
X107827000Y-114513333D02*
X107760333Y-114546666D01*
X107593666Y-114546666D01*
X107527000Y-114513333D01*
X107493666Y-114446666D01*
X107493666Y-114380000D01*
X107527000Y-114313333D01*
X107593666Y-114280000D01*
X107760333Y-114280000D01*
X107827000Y-114246666D01*
X108160333Y-114546666D02*
X108160333Y-114080000D01*
X108160333Y-114213333D02*
X108193666Y-114146666D01*
X108227000Y-114113333D01*
X108293666Y-114080000D01*
X108360333Y-114080000D01*
X108493666Y-114080000D02*
X108760333Y-114080000D01*
X108593666Y-113846666D02*
X108593666Y-114446666D01*
X108627000Y-114513333D01*
X108693666Y-114546666D01*
X108760333Y-114546666D01*
X109293666Y-114080000D02*
X109293666Y-114546666D01*
X108993666Y-114080000D02*
X108993666Y-114446666D01*
X109027000Y-114513333D01*
X109093666Y-114546666D01*
X109193666Y-114546666D01*
X109260333Y-114513333D01*
X109293666Y-114480000D01*
X109627000Y-114546666D02*
X109627000Y-114080000D01*
X109627000Y-114213333D02*
X109660333Y-114146666D01*
X109693666Y-114113333D01*
X109760333Y-114080000D01*
X109827000Y-114080000D01*
X110060333Y-114480000D02*
X110093666Y-114513333D01*
X110060333Y-114546666D01*
X110027000Y-114513333D01*
X110060333Y-114480000D01*
X110060333Y-114546666D01*
X110693666Y-114546666D02*
X110693666Y-114180000D01*
X110660333Y-114113333D01*
X110593666Y-114080000D01*
X110460333Y-114080000D01*
X110393666Y-114113333D01*
X110693666Y-114513333D02*
X110627000Y-114546666D01*
X110460333Y-114546666D01*
X110393666Y-114513333D01*
X110360333Y-114446666D01*
X110360333Y-114380000D01*
X110393666Y-114313333D01*
X110460333Y-114280000D01*
X110627000Y-114280000D01*
X110693666Y-114246666D01*
X111027000Y-114480000D02*
X111060333Y-114513333D01*
X111027000Y-114546666D01*
X110993666Y-114513333D01*
X111027000Y-114480000D01*
X111027000Y-114546666D01*
X111360333Y-114080000D02*
X111360333Y-114780000D01*
X111360333Y-114113333D02*
X111427000Y-114080000D01*
X111560333Y-114080000D01*
X111627000Y-114113333D01*
X111660333Y-114146666D01*
X111693666Y-114213333D01*
X111693666Y-114413333D01*
X111660333Y-114480000D01*
X111627000Y-114513333D01*
X111560333Y-114546666D01*
X111427000Y-114546666D01*
X111360333Y-114513333D01*
X112093666Y-114546666D02*
X112027000Y-114513333D01*
X111993666Y-114480000D01*
X111960333Y-114413333D01*
X111960333Y-114213333D01*
X111993666Y-114146666D01*
X112027000Y-114113333D01*
X112093666Y-114080000D01*
X112193666Y-114080000D01*
X112260333Y-114113333D01*
X112293666Y-114146666D01*
X112327000Y-114213333D01*
X112327000Y-114413333D01*
X112293666Y-114480000D01*
X112260333Y-114513333D01*
X112193666Y-114546666D01*
X112093666Y-114546666D01*
X112560333Y-114080000D02*
X112927000Y-114080000D01*
X112560333Y-114546666D01*
X112927000Y-114546666D01*
X113193666Y-114080000D02*
X113193666Y-114546666D01*
X113193666Y-114146666D02*
X113227000Y-114113333D01*
X113293666Y-114080000D01*
X113393666Y-114080000D01*
X113460333Y-114113333D01*
X113493666Y-114180000D01*
X113493666Y-114546666D01*
X113827000Y-114546666D02*
X113827000Y-114080000D01*
X113827000Y-113846666D02*
X113793666Y-113880000D01*
X113827000Y-113913333D01*
X113860333Y-113880000D01*
X113827000Y-113846666D01*
X113827000Y-113913333D01*
X114460333Y-114546666D02*
X114460333Y-114180000D01*
X114427000Y-114113333D01*
X114360333Y-114080000D01*
X114227000Y-114080000D01*
X114160333Y-114113333D01*
X114460333Y-114513333D02*
X114393666Y-114546666D01*
X114227000Y-114546666D01*
X114160333Y-114513333D01*
X114127000Y-114446666D01*
X114127000Y-114380000D01*
X114160333Y-114313333D01*
X114227000Y-114280000D01*
X114393666Y-114280000D01*
X114460333Y-114246666D01*
X114793666Y-114546666D02*
X114793666Y-113846666D01*
X114860333Y-114280000D02*
X115060333Y-114546666D01*
X115060333Y-114080000D02*
X114793666Y-114346666D01*
X115793666Y-114213333D02*
X115760333Y-114180000D01*
X115693666Y-114146666D01*
X115627000Y-114146666D01*
X115560333Y-114180000D01*
X115527000Y-114213333D01*
X115493666Y-114280000D01*
X115493666Y-114346666D01*
X115527000Y-114413333D01*
X115560333Y-114446666D01*
X115627000Y-114480000D01*
X115693666Y-114480000D01*
X115760333Y-114446666D01*
X115793666Y-114413333D01*
X115793666Y-114146666D02*
X115793666Y-114413333D01*
X115827000Y-114446666D01*
X115860333Y-114446666D01*
X115927000Y-114413333D01*
X115960333Y-114346666D01*
X115960333Y-114180000D01*
X115893666Y-114080000D01*
X115793666Y-114013333D01*
X115660333Y-113980000D01*
X115527000Y-114013333D01*
X115427000Y-114080000D01*
X115360333Y-114180000D01*
X115327000Y-114313333D01*
X115360333Y-114446666D01*
X115427000Y-114546666D01*
X115527000Y-114613333D01*
X115660333Y-114646666D01*
X115793666Y-114613333D01*
X115893666Y-114546666D01*
X116560333Y-114080000D02*
X116560333Y-114646666D01*
X116527000Y-114713333D01*
X116493666Y-114746666D01*
X116427000Y-114780000D01*
X116327000Y-114780000D01*
X116260333Y-114746666D01*
X116560333Y-114513333D02*
X116493666Y-114546666D01*
X116360333Y-114546666D01*
X116293666Y-114513333D01*
X116260333Y-114480000D01*
X116227000Y-114413333D01*
X116227000Y-114213333D01*
X116260333Y-114146666D01*
X116293666Y-114113333D01*
X116360333Y-114080000D01*
X116493666Y-114080000D01*
X116560333Y-114113333D01*
X116893666Y-114546666D02*
X116893666Y-114080000D01*
X116893666Y-114146666D02*
X116927000Y-114113333D01*
X116993666Y-114080000D01*
X117093666Y-114080000D01*
X117160333Y-114113333D01*
X117193666Y-114180000D01*
X117193666Y-114546666D01*
X117193666Y-114180000D02*
X117227000Y-114113333D01*
X117293666Y-114080000D01*
X117393666Y-114080000D01*
X117460333Y-114113333D01*
X117493666Y-114180000D01*
X117493666Y-114546666D01*
X118127000Y-114546666D02*
X118127000Y-114180000D01*
X118093666Y-114113333D01*
X118027000Y-114080000D01*
X117893666Y-114080000D01*
X117827000Y-114113333D01*
X118127000Y-114513333D02*
X118060333Y-114546666D01*
X117893666Y-114546666D01*
X117827000Y-114513333D01*
X117793666Y-114446666D01*
X117793666Y-114380000D01*
X117827000Y-114313333D01*
X117893666Y-114280000D01*
X118060333Y-114280000D01*
X118127000Y-114246666D01*
X118460333Y-114546666D02*
X118460333Y-114080000D01*
X118460333Y-113846666D02*
X118427000Y-113880000D01*
X118460333Y-113913333D01*
X118493666Y-113880000D01*
X118460333Y-113846666D01*
X118460333Y-113913333D01*
X118893666Y-114546666D02*
X118827000Y-114513333D01*
X118793666Y-114446666D01*
X118793666Y-113846666D01*
X119160333Y-114480000D02*
X119193666Y-114513333D01*
X119160333Y-114546666D01*
X119127000Y-114513333D01*
X119160333Y-114480000D01*
X119160333Y-114546666D01*
X119793666Y-114513333D02*
X119727000Y-114546666D01*
X119593666Y-114546666D01*
X119527000Y-114513333D01*
X119493666Y-114480000D01*
X119460333Y-114413333D01*
X119460333Y-114213333D01*
X119493666Y-114146666D01*
X119527000Y-114113333D01*
X119593666Y-114080000D01*
X119727000Y-114080000D01*
X119793666Y-114113333D01*
X120193666Y-114546666D02*
X120127000Y-114513333D01*
X120093666Y-114480000D01*
X120060333Y-114413333D01*
X120060333Y-114213333D01*
X120093666Y-114146666D01*
X120127000Y-114113333D01*
X120193666Y-114080000D01*
X120293666Y-114080000D01*
X120360333Y-114113333D01*
X120393666Y-114146666D01*
X120427000Y-114213333D01*
X120427000Y-114413333D01*
X120393666Y-114480000D01*
X120360333Y-114513333D01*
X120293666Y-114546666D01*
X120193666Y-114546666D01*
X120727000Y-114546666D02*
X120727000Y-114080000D01*
X120727000Y-114146666D02*
X120760333Y-114113333D01*
X120827000Y-114080000D01*
X120927000Y-114080000D01*
X120993666Y-114113333D01*
X121027000Y-114180000D01*
X121027000Y-114546666D01*
X121027000Y-114180000D02*
X121060333Y-114113333D01*
X121127000Y-114080000D01*
X121227000Y-114080000D01*
X121293666Y-114113333D01*
X121327000Y-114180000D01*
X121327000Y-114546666D01*
D11*
X122632047Y-103138714D02*
X123393952Y-103424428D01*
X122632047Y-103710142D01*
D12*
X125703000Y-101170064D02*
X125703000Y-100715936D01*
X124233000Y-101170064D02*
X124233000Y-100715936D01*
X125973000Y-107038000D02*
X125973000Y-104353000D01*
X124053000Y-107038000D02*
X125973000Y-107038000D01*
X124053000Y-104353000D02*
X124053000Y-107038000D01*
X102153000Y-98268000D02*
X103003000Y-98268000D01*
X102153000Y-108438000D02*
X102153000Y-98268000D01*
X103003000Y-108438000D02*
X102153000Y-108438000D01*
X107373000Y-98268000D02*
X107373000Y-100593000D01*
X106523000Y-98268000D02*
X107373000Y-98268000D01*
X107373000Y-106113000D02*
X109763000Y-106113000D01*
X107373000Y-108438000D02*
X107373000Y-106113000D01*
X106523000Y-108438000D02*
X107373000Y-108438000D01*
X118241578Y-109018000D02*
X117724422Y-109018000D01*
X118241578Y-110438000D02*
X117724422Y-110438000D01*
X121983000Y-103378000D02*
G75*
G03*
X121983000Y-103378000I-4000000J0D01*
G01*
D11*
X127325380Y-101893666D02*
X126849190Y-102227000D01*
X127325380Y-102465095D02*
X126325380Y-102465095D01*
X126325380Y-102084142D01*
X126373000Y-101988904D01*
X126420619Y-101941285D01*
X126515857Y-101893666D01*
X126658714Y-101893666D01*
X126753952Y-101941285D01*
X126801571Y-101988904D01*
X126849190Y-102084142D01*
X126849190Y-102465095D01*
X126420619Y-101512714D02*
X126373000Y-101465095D01*
X126325380Y-101369857D01*
X126325380Y-101131761D01*
X126373000Y-101036523D01*
X126420619Y-100988904D01*
X126515857Y-100941285D01*
X126611095Y-100941285D01*
X126753952Y-100988904D01*
X127325380Y-101560333D01*
X127325380Y-100941285D01*
X127325380Y-107037095D02*
X126325380Y-107037095D01*
X126325380Y-106799000D01*
X126373000Y-106656142D01*
X126468238Y-106560904D01*
X126563476Y-106513285D01*
X126753952Y-106465666D01*
X126896809Y-106465666D01*
X127087285Y-106513285D01*
X127182523Y-106560904D01*
X127277761Y-106656142D01*
X127325380Y-106799000D01*
X127325380Y-107037095D01*
X127325380Y-105513285D02*
X127325380Y-106084714D01*
X127325380Y-105799000D02*
X126325380Y-105799000D01*
X126468238Y-105894238D01*
X126563476Y-105989476D01*
X126611095Y-106084714D01*
X108545380Y-107902333D02*
X109259666Y-107902333D01*
X109402523Y-107949952D01*
X109497761Y-108045190D01*
X109545380Y-108188047D01*
X109545380Y-108283285D01*
X109545380Y-106902333D02*
X109545380Y-107473761D01*
X109545380Y-107188047D02*
X108545380Y-107188047D01*
X108688238Y-107283285D01*
X108783476Y-107378523D01*
X108831095Y-107473761D01*
X117816333Y-111830380D02*
X117483000Y-111354190D01*
X117244904Y-111830380D02*
X117244904Y-110830380D01*
X117625857Y-110830380D01*
X117721095Y-110878000D01*
X117768714Y-110925619D01*
X117816333Y-111020857D01*
X117816333Y-111163714D01*
X117768714Y-111258952D01*
X117721095Y-111306571D01*
X117625857Y-111354190D01*
X117244904Y-111354190D01*
X118768714Y-111830380D02*
X118197285Y-111830380D01*
X118483000Y-111830380D02*
X118483000Y-110830380D01*
X118387761Y-110973238D01*
X118292523Y-111068476D01*
X118197285Y-111116095D01*
X113965380Y-99186333D02*
X114679666Y-99186333D01*
X114822523Y-99233952D01*
X114917761Y-99329190D01*
X114965380Y-99472047D01*
X114965380Y-99567285D01*
X114060619Y-98757761D02*
X114013000Y-98710142D01*
X113965380Y-98614904D01*
X113965380Y-98376809D01*
X114013000Y-98281571D01*
X114060619Y-98233952D01*
X114155857Y-98186333D01*
X114251095Y-98186333D01*
X114393952Y-98233952D01*
X114965380Y-98805380D01*
X114965380Y-98186333D01*
M02*
