G04 #@! TF.GenerationSoftware,KiCad,Pcbnew,5.1.9*
G04 #@! TF.CreationDate,2021-01-10T12:08:52+01:00*
G04 #@! TF.ProjectId,detectorHolder,64657465-6374-46f7-9248-6f6c6465722e,rev?*
G04 #@! TF.SameCoordinates,Original*
G04 #@! TF.FileFunction,Copper,L2,Bot*
G04 #@! TF.FilePolarity,Positive*
%FSLAX46Y46*%
G04 Gerber Fmt 4.6, Leading zero omitted, Abs format (unit mm)*
G04 Created by KiCad (PCBNEW 5.1.9) date 2021-01-10 12:08:52*
%MOMM*%
%LPD*%
G01*
G04 APERTURE LIST*
G04 #@! TA.AperFunction,NonConductor*
%ADD10C,0.300000*%
G04 #@! TD*
G04 #@! TA.AperFunction,ComponentPad*
%ADD11C,4.700000*%
G04 #@! TD*
G04 #@! TA.AperFunction,ComponentPad*
%ADD12C,1.524000*%
G04 #@! TD*
G04 #@! TA.AperFunction,ComponentPad*
%ADD13R,1.500000X1.500000*%
G04 #@! TD*
G04 #@! TA.AperFunction,ViaPad*
%ADD14C,0.800000*%
G04 #@! TD*
G04 #@! TA.AperFunction,Conductor*
%ADD15C,0.500000*%
G04 #@! TD*
G04 #@! TA.AperFunction,Conductor*
%ADD16C,0.254000*%
G04 #@! TD*
G04 #@! TA.AperFunction,Conductor*
%ADD17C,0.100000*%
G04 #@! TD*
G04 APERTURE END LIST*
D10*
X121216714Y-96309571D02*
X121216714Y-94809571D01*
X120716714Y-95881000D01*
X120216714Y-94809571D01*
X120216714Y-96309571D01*
X119288142Y-96309571D02*
X119431000Y-96238142D01*
X119502428Y-96166714D01*
X119573857Y-96023857D01*
X119573857Y-95595285D01*
X119502428Y-95452428D01*
X119431000Y-95381000D01*
X119288142Y-95309571D01*
X119073857Y-95309571D01*
X118931000Y-95381000D01*
X118859571Y-95452428D01*
X118788142Y-95595285D01*
X118788142Y-96023857D01*
X118859571Y-96166714D01*
X118931000Y-96238142D01*
X119073857Y-96309571D01*
X119288142Y-96309571D01*
X118145285Y-96309571D02*
X118145285Y-94809571D01*
X117288142Y-96309571D01*
X117288142Y-94809571D01*
X116359571Y-96309571D02*
X116502428Y-96238142D01*
X116573857Y-96166714D01*
X116645285Y-96023857D01*
X116645285Y-95595285D01*
X116573857Y-95452428D01*
X116502428Y-95381000D01*
X116359571Y-95309571D01*
X116145285Y-95309571D01*
X116002428Y-95381000D01*
X115931000Y-95452428D01*
X115859571Y-95595285D01*
X115859571Y-96023857D01*
X115931000Y-96166714D01*
X116002428Y-96238142D01*
X116145285Y-96309571D01*
X116359571Y-96309571D01*
X115431000Y-94952428D02*
X115145285Y-94738142D01*
X114859571Y-94952428D01*
X114573857Y-94952428D02*
X114288142Y-94738142D01*
X114002428Y-94952428D01*
X113002428Y-95523857D02*
X112788142Y-95595285D01*
X112716714Y-95666714D01*
X112645285Y-95809571D01*
X112645285Y-96023857D01*
X112716714Y-96166714D01*
X112788142Y-96238142D01*
X112931000Y-96309571D01*
X113502428Y-96309571D01*
X113502428Y-94809571D01*
X113002428Y-94809571D01*
X112859571Y-94881000D01*
X112788142Y-94952428D01*
X112716714Y-95095285D01*
X112716714Y-95238142D01*
X112788142Y-95381000D01*
X112859571Y-95452428D01*
X113002428Y-95523857D01*
X113502428Y-95523857D01*
X111145285Y-96309571D02*
X111645285Y-95595285D01*
X112002428Y-96309571D02*
X112002428Y-94809571D01*
X111431000Y-94809571D01*
X111288142Y-94881000D01*
X111216714Y-94952428D01*
X111145285Y-95095285D01*
X111145285Y-95309571D01*
X111216714Y-95452428D01*
X111288142Y-95523857D01*
X111431000Y-95595285D01*
X112002428Y-95595285D01*
X110502428Y-95523857D02*
X110002428Y-95523857D01*
X109788142Y-96309571D02*
X110502428Y-96309571D01*
X110502428Y-94809571D01*
X109788142Y-94809571D01*
X109288142Y-94809571D02*
X108931000Y-96309571D01*
X108645285Y-95238142D01*
X108359571Y-96309571D01*
X108002428Y-94809571D01*
D11*
X125013000Y-112353000D03*
X125013000Y-94353000D03*
X104513000Y-112353000D03*
X104513000Y-94353000D03*
D12*
X116433000Y-104928000D03*
X116433000Y-101828000D03*
X119533000Y-104928000D03*
D13*
X119533000Y-101828000D03*
D14*
X118999000Y-107315000D03*
D15*
X119533000Y-106781000D02*
X118999000Y-107315000D01*
X119533000Y-104928000D02*
X119533000Y-106781000D01*
X116433000Y-101828000D02*
X119533000Y-101828000D01*
D16*
X122312238Y-96569458D02*
X122796542Y-97053762D01*
X123366023Y-97434278D01*
X123998796Y-97696381D01*
X124670545Y-97830000D01*
X125355455Y-97830000D01*
X126027204Y-97696381D01*
X126659977Y-97434278D01*
X127229458Y-97053762D01*
X127713762Y-96569458D01*
X127886000Y-96311686D01*
X127886000Y-110394314D01*
X127713762Y-110136542D01*
X127229458Y-109652238D01*
X126659977Y-109271722D01*
X126027204Y-109009619D01*
X125355455Y-108876000D01*
X124670545Y-108876000D01*
X123998796Y-109009619D01*
X123366023Y-109271722D01*
X122796542Y-109652238D01*
X122312238Y-110136542D01*
X121931722Y-110706023D01*
X121669619Y-111338796D01*
X121536000Y-112010545D01*
X121536000Y-112695455D01*
X121669619Y-113367204D01*
X121931722Y-113999977D01*
X122312238Y-114569458D01*
X122796542Y-115053762D01*
X123054314Y-115226000D01*
X106471686Y-115226000D01*
X106729458Y-115053762D01*
X107213762Y-114569458D01*
X107594278Y-113999977D01*
X107856381Y-113367204D01*
X107990000Y-112695455D01*
X107990000Y-112010545D01*
X107856381Y-111338796D01*
X107594278Y-110706023D01*
X107213762Y-110136542D01*
X106729458Y-109652238D01*
X106159977Y-109271722D01*
X105527204Y-109009619D01*
X104855455Y-108876000D01*
X104170545Y-108876000D01*
X103498796Y-109009619D01*
X102866023Y-109271722D01*
X102296542Y-109652238D01*
X101812238Y-110136542D01*
X101640000Y-110394314D01*
X101640000Y-104815424D01*
X115290000Y-104815424D01*
X115290000Y-105040576D01*
X115333925Y-105261401D01*
X115420087Y-105469413D01*
X115545174Y-105656620D01*
X115704380Y-105815826D01*
X115891587Y-105940913D01*
X116099599Y-106027075D01*
X116320424Y-106071000D01*
X116545576Y-106071000D01*
X116766401Y-106027075D01*
X116974413Y-105940913D01*
X117161620Y-105815826D01*
X117220296Y-105757150D01*
X118883455Y-105757150D01*
X118964796Y-105926131D01*
X119170439Y-106017803D01*
X119390016Y-106067595D01*
X119615087Y-106073593D01*
X119837004Y-106035566D01*
X120047238Y-105954976D01*
X120101204Y-105926131D01*
X120182545Y-105757150D01*
X119533000Y-105107605D01*
X118883455Y-105757150D01*
X117220296Y-105757150D01*
X117320826Y-105656620D01*
X117445913Y-105469413D01*
X117532075Y-105261401D01*
X117576000Y-105040576D01*
X117576000Y-105010087D01*
X118387407Y-105010087D01*
X118425434Y-105232004D01*
X118506024Y-105442238D01*
X118534869Y-105496204D01*
X118703850Y-105577545D01*
X119353395Y-104928000D01*
X119712605Y-104928000D01*
X120362150Y-105577545D01*
X120531131Y-105496204D01*
X120622803Y-105290561D01*
X120672595Y-105070984D01*
X120678593Y-104845913D01*
X120640566Y-104623996D01*
X120559976Y-104413762D01*
X120531131Y-104359796D01*
X120362150Y-104278455D01*
X119712605Y-104928000D01*
X119353395Y-104928000D01*
X118703850Y-104278455D01*
X118534869Y-104359796D01*
X118443197Y-104565439D01*
X118393405Y-104785016D01*
X118387407Y-105010087D01*
X117576000Y-105010087D01*
X117576000Y-104815424D01*
X117532075Y-104594599D01*
X117445913Y-104386587D01*
X117320826Y-104199380D01*
X117220296Y-104098850D01*
X118883455Y-104098850D01*
X119533000Y-104748395D01*
X120182545Y-104098850D01*
X120101204Y-103929869D01*
X119895561Y-103838197D01*
X119675984Y-103788405D01*
X119450913Y-103782407D01*
X119228996Y-103820434D01*
X119018762Y-103901024D01*
X118964796Y-103929869D01*
X118883455Y-104098850D01*
X117220296Y-104098850D01*
X117161620Y-104040174D01*
X116974413Y-103915087D01*
X116766401Y-103828925D01*
X116545576Y-103785000D01*
X116320424Y-103785000D01*
X116099599Y-103828925D01*
X115891587Y-103915087D01*
X115704380Y-104040174D01*
X115545174Y-104199380D01*
X115420087Y-104386587D01*
X115333925Y-104594599D01*
X115290000Y-104815424D01*
X101640000Y-104815424D01*
X101640000Y-101715424D01*
X115290000Y-101715424D01*
X115290000Y-101940576D01*
X115333925Y-102161401D01*
X115420087Y-102369413D01*
X115545174Y-102556620D01*
X115704380Y-102715826D01*
X115891587Y-102840913D01*
X116099599Y-102927075D01*
X116320424Y-102971000D01*
X116545576Y-102971000D01*
X116766401Y-102927075D01*
X116974413Y-102840913D01*
X117161620Y-102715826D01*
X117320826Y-102556620D01*
X117386053Y-102459000D01*
X118400157Y-102459000D01*
X118400157Y-102578000D01*
X118407513Y-102652689D01*
X118429299Y-102724508D01*
X118464678Y-102790696D01*
X118512289Y-102848711D01*
X118570304Y-102896322D01*
X118636492Y-102931701D01*
X118708311Y-102953487D01*
X118783000Y-102960843D01*
X120283000Y-102960843D01*
X120357689Y-102953487D01*
X120429508Y-102931701D01*
X120495696Y-102896322D01*
X120553711Y-102848711D01*
X120601322Y-102790696D01*
X120636701Y-102724508D01*
X120658487Y-102652689D01*
X120665843Y-102578000D01*
X120665843Y-101078000D01*
X120658487Y-101003311D01*
X120636701Y-100931492D01*
X120601322Y-100865304D01*
X120553711Y-100807289D01*
X120495696Y-100759678D01*
X120429508Y-100724299D01*
X120357689Y-100702513D01*
X120283000Y-100695157D01*
X118783000Y-100695157D01*
X118708311Y-100702513D01*
X118636492Y-100724299D01*
X118570304Y-100759678D01*
X118512289Y-100807289D01*
X118464678Y-100865304D01*
X118429299Y-100931492D01*
X118407513Y-101003311D01*
X118400157Y-101078000D01*
X118400157Y-101197000D01*
X117386053Y-101197000D01*
X117320826Y-101099380D01*
X117161620Y-100940174D01*
X116974413Y-100815087D01*
X116766401Y-100728925D01*
X116545576Y-100685000D01*
X116320424Y-100685000D01*
X116099599Y-100728925D01*
X115891587Y-100815087D01*
X115704380Y-100940174D01*
X115545174Y-101099380D01*
X115420087Y-101286587D01*
X115333925Y-101494599D01*
X115290000Y-101715424D01*
X101640000Y-101715424D01*
X101640000Y-96311686D01*
X101812238Y-96569458D01*
X102296542Y-97053762D01*
X102866023Y-97434278D01*
X103498796Y-97696381D01*
X104170545Y-97830000D01*
X104855455Y-97830000D01*
X105527204Y-97696381D01*
X106159977Y-97434278D01*
X106729458Y-97053762D01*
X107213762Y-96569458D01*
X107257143Y-96504534D01*
X107257143Y-97407000D01*
X122104857Y-97407000D01*
X122104857Y-96259091D01*
X122312238Y-96569458D01*
G04 #@! TA.AperFunction,Conductor*
D17*
G36*
X122312238Y-96569458D02*
G01*
X122796542Y-97053762D01*
X123366023Y-97434278D01*
X123998796Y-97696381D01*
X124670545Y-97830000D01*
X125355455Y-97830000D01*
X126027204Y-97696381D01*
X126659977Y-97434278D01*
X127229458Y-97053762D01*
X127713762Y-96569458D01*
X127886000Y-96311686D01*
X127886000Y-110394314D01*
X127713762Y-110136542D01*
X127229458Y-109652238D01*
X126659977Y-109271722D01*
X126027204Y-109009619D01*
X125355455Y-108876000D01*
X124670545Y-108876000D01*
X123998796Y-109009619D01*
X123366023Y-109271722D01*
X122796542Y-109652238D01*
X122312238Y-110136542D01*
X121931722Y-110706023D01*
X121669619Y-111338796D01*
X121536000Y-112010545D01*
X121536000Y-112695455D01*
X121669619Y-113367204D01*
X121931722Y-113999977D01*
X122312238Y-114569458D01*
X122796542Y-115053762D01*
X123054314Y-115226000D01*
X106471686Y-115226000D01*
X106729458Y-115053762D01*
X107213762Y-114569458D01*
X107594278Y-113999977D01*
X107856381Y-113367204D01*
X107990000Y-112695455D01*
X107990000Y-112010545D01*
X107856381Y-111338796D01*
X107594278Y-110706023D01*
X107213762Y-110136542D01*
X106729458Y-109652238D01*
X106159977Y-109271722D01*
X105527204Y-109009619D01*
X104855455Y-108876000D01*
X104170545Y-108876000D01*
X103498796Y-109009619D01*
X102866023Y-109271722D01*
X102296542Y-109652238D01*
X101812238Y-110136542D01*
X101640000Y-110394314D01*
X101640000Y-104815424D01*
X115290000Y-104815424D01*
X115290000Y-105040576D01*
X115333925Y-105261401D01*
X115420087Y-105469413D01*
X115545174Y-105656620D01*
X115704380Y-105815826D01*
X115891587Y-105940913D01*
X116099599Y-106027075D01*
X116320424Y-106071000D01*
X116545576Y-106071000D01*
X116766401Y-106027075D01*
X116974413Y-105940913D01*
X117161620Y-105815826D01*
X117220296Y-105757150D01*
X118883455Y-105757150D01*
X118964796Y-105926131D01*
X119170439Y-106017803D01*
X119390016Y-106067595D01*
X119615087Y-106073593D01*
X119837004Y-106035566D01*
X120047238Y-105954976D01*
X120101204Y-105926131D01*
X120182545Y-105757150D01*
X119533000Y-105107605D01*
X118883455Y-105757150D01*
X117220296Y-105757150D01*
X117320826Y-105656620D01*
X117445913Y-105469413D01*
X117532075Y-105261401D01*
X117576000Y-105040576D01*
X117576000Y-105010087D01*
X118387407Y-105010087D01*
X118425434Y-105232004D01*
X118506024Y-105442238D01*
X118534869Y-105496204D01*
X118703850Y-105577545D01*
X119353395Y-104928000D01*
X119712605Y-104928000D01*
X120362150Y-105577545D01*
X120531131Y-105496204D01*
X120622803Y-105290561D01*
X120672595Y-105070984D01*
X120678593Y-104845913D01*
X120640566Y-104623996D01*
X120559976Y-104413762D01*
X120531131Y-104359796D01*
X120362150Y-104278455D01*
X119712605Y-104928000D01*
X119353395Y-104928000D01*
X118703850Y-104278455D01*
X118534869Y-104359796D01*
X118443197Y-104565439D01*
X118393405Y-104785016D01*
X118387407Y-105010087D01*
X117576000Y-105010087D01*
X117576000Y-104815424D01*
X117532075Y-104594599D01*
X117445913Y-104386587D01*
X117320826Y-104199380D01*
X117220296Y-104098850D01*
X118883455Y-104098850D01*
X119533000Y-104748395D01*
X120182545Y-104098850D01*
X120101204Y-103929869D01*
X119895561Y-103838197D01*
X119675984Y-103788405D01*
X119450913Y-103782407D01*
X119228996Y-103820434D01*
X119018762Y-103901024D01*
X118964796Y-103929869D01*
X118883455Y-104098850D01*
X117220296Y-104098850D01*
X117161620Y-104040174D01*
X116974413Y-103915087D01*
X116766401Y-103828925D01*
X116545576Y-103785000D01*
X116320424Y-103785000D01*
X116099599Y-103828925D01*
X115891587Y-103915087D01*
X115704380Y-104040174D01*
X115545174Y-104199380D01*
X115420087Y-104386587D01*
X115333925Y-104594599D01*
X115290000Y-104815424D01*
X101640000Y-104815424D01*
X101640000Y-101715424D01*
X115290000Y-101715424D01*
X115290000Y-101940576D01*
X115333925Y-102161401D01*
X115420087Y-102369413D01*
X115545174Y-102556620D01*
X115704380Y-102715826D01*
X115891587Y-102840913D01*
X116099599Y-102927075D01*
X116320424Y-102971000D01*
X116545576Y-102971000D01*
X116766401Y-102927075D01*
X116974413Y-102840913D01*
X117161620Y-102715826D01*
X117320826Y-102556620D01*
X117386053Y-102459000D01*
X118400157Y-102459000D01*
X118400157Y-102578000D01*
X118407513Y-102652689D01*
X118429299Y-102724508D01*
X118464678Y-102790696D01*
X118512289Y-102848711D01*
X118570304Y-102896322D01*
X118636492Y-102931701D01*
X118708311Y-102953487D01*
X118783000Y-102960843D01*
X120283000Y-102960843D01*
X120357689Y-102953487D01*
X120429508Y-102931701D01*
X120495696Y-102896322D01*
X120553711Y-102848711D01*
X120601322Y-102790696D01*
X120636701Y-102724508D01*
X120658487Y-102652689D01*
X120665843Y-102578000D01*
X120665843Y-101078000D01*
X120658487Y-101003311D01*
X120636701Y-100931492D01*
X120601322Y-100865304D01*
X120553711Y-100807289D01*
X120495696Y-100759678D01*
X120429508Y-100724299D01*
X120357689Y-100702513D01*
X120283000Y-100695157D01*
X118783000Y-100695157D01*
X118708311Y-100702513D01*
X118636492Y-100724299D01*
X118570304Y-100759678D01*
X118512289Y-100807289D01*
X118464678Y-100865304D01*
X118429299Y-100931492D01*
X118407513Y-101003311D01*
X118400157Y-101078000D01*
X118400157Y-101197000D01*
X117386053Y-101197000D01*
X117320826Y-101099380D01*
X117161620Y-100940174D01*
X116974413Y-100815087D01*
X116766401Y-100728925D01*
X116545576Y-100685000D01*
X116320424Y-100685000D01*
X116099599Y-100728925D01*
X115891587Y-100815087D01*
X115704380Y-100940174D01*
X115545174Y-101099380D01*
X115420087Y-101286587D01*
X115333925Y-101494599D01*
X115290000Y-101715424D01*
X101640000Y-101715424D01*
X101640000Y-96311686D01*
X101812238Y-96569458D01*
X102296542Y-97053762D01*
X102866023Y-97434278D01*
X103498796Y-97696381D01*
X104170545Y-97830000D01*
X104855455Y-97830000D01*
X105527204Y-97696381D01*
X106159977Y-97434278D01*
X106729458Y-97053762D01*
X107213762Y-96569458D01*
X107257143Y-96504534D01*
X107257143Y-97407000D01*
X122104857Y-97407000D01*
X122104857Y-96259091D01*
X122312238Y-96569458D01*
G37*
G04 #@! TD.AperFunction*
M02*
